# Blender 4.3.2
# www.blender.org
mtllib barrel_open_big.mtl
o Cylinder.004
v -0.732131 -0.005884 2.902003
v -0.732131 3.044033 2.902003
v -0.312076 -0.005884 2.978123
v -0.312076 3.044033 2.978123
v 0.044029 -0.005884 3.194896
v 0.044029 3.044033 3.194896
v 0.281971 -0.005884 3.519319
v 0.281971 3.044033 3.519319
v 0.365525 -0.005884 3.902003
v 0.365525 3.044033 3.902003
v 0.281971 -0.005884 4.284686
v 0.281971 3.044033 4.284686
v 0.044029 -0.005884 4.609110
v 0.044029 3.044033 4.609110
v -0.312076 -0.005884 4.825882
v -0.312076 3.044033 4.825882
v -0.732131 -0.005884 4.902003
v -0.732131 3.044033 4.902003
v -1.152185 -0.005884 4.825882
v -1.152185 3.044033 4.825882
v -1.508291 -0.005884 4.609110
v -1.508291 3.044033 4.609110
v -1.746233 -0.005884 4.284686
v -1.746233 3.044033 4.284686
v -1.829787 -0.005884 3.902003
v -1.829787 3.044033 3.902003
v -1.746233 -0.005884 3.519319
v -1.746233 3.044033 3.519319
v -1.508291 -0.005884 3.194896
v -1.508291 3.044033 3.194896
v -1.152185 -0.005884 2.978123
v -1.152185 3.044033 2.978123
v -0.732131 1.315256 2.780710
v -0.732131 0.692656 2.817894
v -0.276746 0.692656 2.900417
v -0.261127 1.315256 2.866064
v 0.109311 0.692656 3.135422
v 0.138171 1.315256 3.109129
v 0.367266 0.692656 3.487132
v 0.404974 1.315256 3.472903
v 0.457848 0.692656 3.902003
v 0.498662 1.315256 3.902003
v 0.367266 0.692656 4.316874
v 0.404974 1.315256 4.331103
v 0.109311 0.692656 4.668583
v 0.138171 1.315256 4.694876
v -0.276746 0.692656 4.903589
v -0.261127 1.315256 4.937942
v -0.732131 0.692656 4.986112
v -0.732131 1.315256 5.023295
v -1.187515 0.692656 4.903589
v -1.203135 1.315256 4.937942
v -1.573572 0.692656 4.668583
v -1.602433 1.315256 4.694876
v -1.831527 0.692656 4.316874
v -1.869236 1.315256 4.331103
v -1.922109 0.692656 3.902003
v -1.962924 1.315256 3.902003
v -1.831527 0.692656 3.487132
v -1.869236 1.315256 3.472903
v -1.573572 0.692656 3.135422
v -1.602433 1.315256 3.109129
v -1.187515 0.692656 2.900417
v -1.203135 1.315256 2.866064
v -0.732131 2.420916 2.820832
v -0.732131 1.799139 2.780710
v -0.261127 1.799140 2.866064
v -0.277980 2.420916 2.903131
v 0.138171 1.799140 3.109129
v 0.107031 2.420916 3.137499
v 0.404974 1.799140 3.472903
v 0.364287 2.420916 3.488256
v 0.498662 1.799140 3.902003
v 0.454623 2.420916 3.902003
v 0.404974 1.799140 4.331103
v 0.364287 2.420916 4.315749
v 0.138171 1.799140 4.694876
v 0.107031 2.420916 4.666506
v -0.261127 1.799140 4.937942
v -0.277980 2.420916 4.900875
v -0.732131 1.799140 5.023295
v -0.732131 2.420916 4.983174
v -1.203135 1.799140 4.937942
v -1.186282 2.420916 4.900875
v -1.602433 1.799140 4.694876
v -1.571293 2.420916 4.666506
v -1.869236 1.799140 4.331103
v -1.828548 2.420916 4.315749
v -1.962924 1.799140 3.902003
v -1.918885 2.420916 3.902003
v -1.869236 1.799140 3.472903
v -1.828548 2.420916 3.488256
v -1.602433 1.799140 3.109129
v -1.571293 2.420916 3.137499
v -1.203135 1.799140 2.866064
v -1.186282 2.420916 2.903131
v -1.237431 0.692656 2.790632
v -1.254762 1.315256 2.752513
v -0.732131 1.315256 2.657804
v -0.732131 0.692656 2.699063
v -1.665805 0.692656 3.051396
v -1.697828 1.315256 3.022222
v -1.952034 0.692656 3.441658
v -1.993875 1.315256 3.425869
v -2.052544 0.692656 3.902003
v -2.097833 1.315256 3.902003
v -1.952034 0.692656 4.362348
v -1.993875 1.315256 4.378137
v -1.665805 0.692656 4.752609
v -1.697828 1.315256 4.781784
v -1.237431 0.692656 5.013374
v -1.254762 1.315256 5.051493
v -0.732131 0.692656 5.104942
v -0.732131 1.315256 5.146202
v -0.226830 0.692656 5.013374
v -0.209499 1.315256 5.051493
v 0.201543 0.692656 4.752609
v 0.233566 1.315256 4.781784
v 0.487772 0.692656 4.362348
v 0.529613 1.315256 4.378137
v 0.588283 0.692656 3.902003
v 0.633571 1.315256 3.902003
v 0.487772 0.692656 3.441658
v 0.529613 1.315256 3.425869
v 0.201543 0.692656 3.051396
v 0.233566 1.315256 3.022222
v -0.226830 0.692656 2.790632
v -0.209499 1.315256 2.752513
v -1.254762 1.799140 2.752513
v -1.236062 2.420916 2.793643
v -0.732131 2.420916 2.702323
v -0.732131 1.799139 2.657804
v -1.697828 1.799140 3.022222
v -1.663275 2.420916 3.053701
v -1.993875 1.799140 3.425869
v -1.948728 2.420916 3.442905
v -2.097833 1.799140 3.902003
v -2.048967 2.420916 3.902003
v -1.993875 1.799140 4.378137
v -1.948728 2.420916 4.361100
v -1.697828 1.799140 4.781784
v -1.663275 2.420916 4.750305
v -1.254762 1.799140 5.051493
v -1.236062 2.420916 5.010363
v -0.732131 1.799140 5.146202
v -0.732131 2.420916 5.101683
v -0.209499 1.799140 5.051493
v -0.228199 2.420916 5.010363
v 0.233566 1.799140 4.781784
v 0.199013 2.420916 4.750305
v 0.529613 1.799140 4.378137
v 0.484467 2.420916 4.361100
v 0.633571 1.799140 3.902003
v 0.584705 2.420916 3.902003
v 0.529613 1.799140 3.425869
v 0.484467 2.420916 3.442905
v 0.233566 1.799140 3.022222
v 0.199013 2.420916 3.053701
v -0.209499 1.799140 2.752513
v -0.228199 2.420916 2.793643
v -0.390327 3.044033 3.150231
v -0.732131 3.044033 3.088290
v -1.073934 3.044033 3.150231
v -1.363702 3.044033 3.326621
v -1.557318 3.044033 3.590609
v -1.625307 3.044033 3.902003
v -1.557318 3.044033 4.213397
v -1.363702 3.044033 4.477385
v -1.073934 3.044033 4.653775
v -0.732131 3.044033 4.715715
v -0.390327 3.044033 4.653775
v -0.100560 3.044033 4.477385
v 0.093056 3.044033 4.213397
v 0.161045 3.044033 3.902003
v 0.093056 3.044033 3.590609
v -0.100560 3.044033 3.326621
v -0.732131 -0.005884 3.088290
v -0.390327 -0.005884 3.150231
v -0.100560 -0.005884 3.326621
v 0.093056 -0.005884 3.590609
v 0.161045 -0.005884 3.902003
v 0.093056 -0.005884 4.213397
v -0.100560 -0.005884 4.477385
v -0.390327 -0.005884 4.653775
v -0.732131 -0.005884 4.715715
v -1.073934 -0.005884 4.653775
v -1.363702 -0.005884 4.477385
v -1.557318 -0.005884 4.213397
v -1.625307 -0.005884 3.902003
v -1.557318 -0.005884 3.590609
v -1.363702 -0.005884 3.326621
v -1.073934 -0.005884 3.150231
v -0.390327 -0.005884 3.150231
v -0.732131 -0.005884 3.088290
v -0.100560 -0.005884 3.326621
v -1.073934 -0.005884 3.150231
v -1.363702 -0.005884 3.326621
v -1.557318 -0.005884 3.590609
v -1.625307 -0.005884 3.902003
v -1.557318 -0.005884 4.213397
v -1.363702 -0.005884 4.477385
v -1.073934 -0.005884 4.653775
v -0.732131 -0.005884 4.715715
v -0.390327 -0.005884 4.653775
v -0.100560 -0.005884 4.477385
v 0.093056 -0.005884 4.213397
v 0.161045 -0.005884 3.902003
v 0.093056 -0.005884 3.590609
v -0.390327 1.519074 3.150231
v -0.732131 1.519074 3.088290
v -0.100560 1.519074 3.326621
v -1.073934 1.519074 3.150231
v -1.363702 1.519074 3.326621
v -1.557318 1.519074 3.590609
v -1.625307 1.519074 3.902003
v -1.557318 1.519074 4.213397
v -1.363702 1.519074 4.477385
v -1.073934 1.519074 4.653775
v -0.732131 1.519074 4.715715
v -0.390327 1.519074 4.653775
v -0.100560 1.519074 4.477385
v 0.093056 1.519074 4.213397
v 0.161045 1.519074 3.902003
v 0.093056 1.519074 3.590609
v -0.390327 0.529821 3.150231
v -0.732131 0.529821 3.088290
v -0.100560 0.529821 3.326621
v -1.073934 0.529821 3.150231
v -1.363702 0.529821 3.326621
v -1.557318 0.529821 3.590609
v -1.625307 0.529821 3.902003
v -1.557318 0.529821 4.213397
v -1.363702 0.529821 4.477385
v -1.073934 0.529821 4.653775
v -0.732131 0.529821 4.715715
v -0.390327 0.529821 4.653775
v -0.100560 0.529821 4.477385
v 0.093056 0.529821 4.213397
v 0.161045 0.529821 3.902003
v 0.093056 0.529821 3.590609
vn 0.5155 0.1301 -0.8469
vn 0.7990 0.1348 -0.5860
vn 0.9676 0.1384 -0.2113
vn 0.9676 0.1384 0.2113
vn 0.7990 0.1348 0.5860
vn 0.5155 0.1301 0.8469
vn 0.1769 0.1271 0.9760
vn -0.1769 0.1271 0.9760
vn -0.5155 0.1301 0.8469
vn -0.7990 0.1348 0.5860
vn -0.9676 0.1384 0.2113
vn -0.9676 0.1384 -0.2113
vn -0.7990 0.1348 -0.5860
vn -0.5155 0.1301 -0.8469
vn -0.5200 -0.0000 0.8542
vn 0.1769 0.1271 -0.9760
vn -0.0000 -1.0000 -0.0000
vn -0.1783 -0.0000 -0.9840
vn -0.5200 -0.0000 -0.8542
vn -0.8064 -0.0000 -0.5914
vn -0.9770 -0.0000 -0.2133
vn -0.9770 -0.0000 0.2133
vn -0.8064 -0.0000 0.5914
vn -0.1783 -0.0000 0.9840
vn 0.1783 -0.0000 0.9840
vn 0.5200 -0.0000 0.8542
vn 0.8064 -0.0000 0.5914
vn 0.9770 -0.0000 0.2133
vn 0.9770 -0.0000 -0.2133
vn 0.8064 -0.0000 -0.5914
vn 0.5200 -0.0000 -0.8542
vn 0.1783 -0.0000 -0.9840
vn 0.5162 -0.1204 -0.8480
vn -0.1769 0.1271 -0.9760
vn -0.5162 -0.1204 -0.8480
vn -0.8001 -0.1247 -0.5868
vn -0.9689 -0.1281 -0.2116
vn -0.9689 -0.1281 0.2116
vn -0.8001 -0.1247 0.5868
vn -0.5162 -0.1204 0.8480
vn -0.1771 -0.1177 0.9771
vn 0.1771 -0.1177 0.9771
vn 0.5162 -0.1204 0.8480
vn 0.8001 -0.1247 0.5868
vn 0.9689 -0.1281 0.2116
vn 0.9689 -0.1281 -0.2116
vn 0.8001 -0.1247 -0.5868
vn -0.1771 -0.1177 -0.9771
vn -0.0000 1.0000 -0.0000
vn 0.1771 -0.1177 -0.9771
vn -0.1779 -0.0651 -0.9819
vn -0.5188 -0.0666 -0.8523
vn -0.8044 -0.0690 -0.5900
vn -0.9745 -0.0709 -0.2128
vn -0.9745 -0.0709 0.2128
vn -0.8044 -0.0690 0.5900
vn -0.5188 -0.0666 0.8523
vn -0.1779 -0.0651 0.9819
vn 0.1779 -0.0651 0.9819
vn 0.5188 -0.0666 0.8523
vn 0.8044 -0.0690 0.5900
vn 0.9745 -0.0709 0.2128
vn 0.9745 -0.0709 -0.2128
vn 0.8044 -0.0690 -0.5900
vn 0.5188 -0.0666 -0.8523
vn 0.1779 -0.0651 -0.9819
vn -0.1779 0.0703 -0.9815
vn -0.5186 0.0720 -0.8520
vn -0.8041 0.0745 -0.5898
vn -0.9741 0.0766 -0.2127
vn -0.9741 0.0766 0.2127
vn -0.8041 0.0745 0.5898
vn -0.5186 0.0720 0.8520
vn -0.1779 0.0703 0.9815
vn 0.1779 0.0703 0.9815
vn 0.5186 0.0720 0.8520
vn 0.8041 0.0745 0.5898
vn 0.9741 0.0766 0.2127
vn 0.9741 0.0766 -0.2127
vn 0.8041 0.0745 -0.5898
vn 0.5186 0.0720 -0.8520
vn 0.1779 0.0703 -0.9815
vt 0.937500 0.891252
vt 0.937500 1.000000
vt 0.875000 1.000000
vt 0.875000 0.891252
vt 0.875000 0.891252
vt 0.812500 1.000000
vt 0.812500 0.891252
vt 0.750000 1.000000
vt 0.750000 0.891252
vt 0.687500 1.000000
vt 0.687500 0.891252
vt 0.687500 0.891252
vt 0.625000 1.000000
vt 0.625000 0.891252
vt 0.625000 0.891252
vt 0.562500 1.000000
vt 0.562500 0.891252
vt 0.500000 1.000000
vt 0.500000 0.891252
vt 0.437500 1.000000
vt 0.437500 0.891252
vt 0.437500 0.891252
vt 0.375000 1.000000
vt 0.375000 0.891252
vt 0.375000 0.891252
vt 0.312500 1.000000
vt 0.312500 0.891252
vt 0.250000 1.000000
vt 0.250000 0.891252
vt 0.187500 1.000000
vt 0.187500 0.891252
vt 0.187500 0.891252
vt 0.125000 1.000000
vt 0.125000 0.891252
vt 0.125000 0.891252
vt 0.062500 1.000000
vt 0.062500 0.891252
vt 0.388092 0.388092
vt 0.324735 0.430425
vt 1.000000 0.891252
vt 1.000000 1.000000
vt 0.937500 0.891252
vt 0.750000 0.445291
vt 0.824735 0.430425
vt 0.888092 0.388092
vt 0.930425 0.324735
vt 0.945291 0.250000
vt 0.930425 0.175265
vt 0.888092 0.111908
vt 0.824735 0.069575
vt 0.750000 0.054709
vt 0.675265 0.069575
vt 0.611908 0.111908
vt 0.569575 0.175265
vt 0.554709 0.250000
vt 0.569575 0.324735
vt 0.611908 0.388092
vt 0.675265 0.430425
vt 0.062500 0.720877
vt 0.062500 0.791623
vt 0.000000 0.791623
vt 0.000000 0.720877
vt 0.125000 0.720877
vt 0.125000 0.791623
vt 0.062500 0.791623
vt 0.187500 0.720877
vt 0.187500 0.791623
vt 0.125000 0.791623
vt 0.250000 0.720877
vt 0.250000 0.791623
vt 0.187500 0.791623
vt 0.187500 0.720877
vt 0.312500 0.720877
vt 0.312500 0.791623
vt 0.250000 0.791623
vt 0.375000 0.720877
vt 0.375000 0.791623
vt 0.312500 0.791623
vt 0.437500 0.720877
vt 0.437500 0.791623
vt 0.375000 0.791623
vt 0.375000 0.720877
vt 0.500000 0.720877
vt 0.500000 0.791623
vt 0.437500 0.791623
vt 0.437500 0.720877
vt 0.562500 0.720877
vt 0.562500 0.791623
vt 0.500000 0.791623
vt 0.625000 0.720877
vt 0.625000 0.791623
vt 0.562500 0.791623
vt 0.687500 0.720877
vt 0.687500 0.791623
vt 0.625000 0.791623
vt 0.625000 0.720877
vt 0.750000 0.720877
vt 0.750000 0.791623
vt 0.687500 0.791623
vt 0.812500 0.720877
vt 0.812500 0.791623
vt 0.750000 0.791623
vt 0.750000 0.720877
vt 0.875000 0.720877
vt 0.875000 0.791623
vt 0.812500 0.791623
vt 0.812500 0.720877
vt 0.937500 0.720877
vt 0.937500 0.791623
vt 0.875000 0.791623
vt 0.875000 0.720877
vt 1.000000 0.720877
vt 1.000000 0.791623
vt 0.937500 0.791623
vt 0.937500 0.500000
vt 0.937500 0.621352
vt 0.875000 0.621352
vt 0.875000 0.500000
vt 0.000000 1.000000
vt 0.000000 0.891252
vt 0.125000 0.500000
vt 0.125000 0.621352
vt 0.062500 0.621352
vt 0.062500 0.500000
vt 0.187500 0.500000
vt 0.187500 0.621352
vt 0.125000 0.621352
vt 0.250000 0.500000
vt 0.250000 0.621352
vt 0.187500 0.621352
vt 0.312500 0.500000
vt 0.312500 0.621352
vt 0.375000 0.500000
vt 0.375000 0.621352
vt 0.437500 0.500000
vt 0.437500 0.621352
vt 0.375000 0.621352
vt 0.500000 0.500000
vt 0.500000 0.621352
vt 0.437500 0.621352
vt 0.562500 0.500000
vt 0.562500 0.621352
vt 0.625000 0.500000
vt 0.625000 0.621352
vt 0.687500 0.500000
vt 0.687500 0.621352
vt 0.625000 0.621352
vt 0.750000 0.500000
vt 0.750000 0.621352
vt 0.687500 0.621352
vt 0.812500 0.500000
vt 0.812500 0.621352
vt 0.875000 0.621352
vt 0.000000 0.621352
vt 0.000000 0.500000
vt 1.000000 0.500000
vt 1.000000 0.621352
vt 0.937500 0.621352
vt 0.341844 0.471731
vt 0.250000 0.490000
vt 0.250000 0.445291
vt 0.158156 0.471731
vt 0.175265 0.430425
vt 0.080294 0.419706
vt 0.111908 0.388092
vt 0.028269 0.341844
vt 0.069575 0.324735
vt 0.010000 0.250000
vt 0.054709 0.250000
vt 0.028269 0.158156
vt 0.069575 0.175265
vt 0.080294 0.080294
vt 0.111908 0.111908
vt 0.158156 0.028269
vt 0.175265 0.069575
vt 0.250000 0.010000
vt 0.250000 0.054709
vt 0.341844 0.028269
vt 0.324735 0.069575
vt 0.419706 0.080294
vt 0.388092 0.111908
vt 0.471731 0.158156
vt 0.430425 0.175265
vt 0.490000 0.250000
vt 0.445291 0.250000
vt 0.471731 0.341844
vt 0.430425 0.324735
vt 0.419706 0.419706
vt 0.750000 0.490000
vt 0.841844 0.471731
vt 0.919706 0.419706
vt 0.971731 0.341844
vt 0.990000 0.250000
vt 0.971731 0.158156
vt 0.919706 0.080294
vt 0.841844 0.028269
vt 0.750000 0.010000
vt 0.658156 0.028269
vt 0.580294 0.080294
vt 0.528269 0.158156
vt 0.510000 0.250000
vt 0.528269 0.341844
vt 0.580294 0.419706
vt 0.658156 0.471731
s 0
usemtl Wood.002
f 68/1/1 4/2/1 6/3/1 70/4/1
f 70/5/2 6/3/2 8/6/2 72/7/2
f 72/7/3 8/6/3 10/8/3 74/9/3
f 74/9/4 10/8/4 12/10/4 76/11/4
f 76/12/5 12/10/5 14/13/5 78/14/5
f 78/15/6 14/13/6 16/16/6 80/17/6
f 80/17/7 16/16/7 18/18/7 82/19/7
f 82/19/8 18/18/8 20/20/8 84/21/8
f 84/22/9 20/20/9 22/23/9 86/24/9
f 86/25/10 22/23/10 24/26/10 88/27/10
f 88/27/11 24/26/11 26/28/11 90/29/11
f 90/29/12 26/28/12 28/30/12 92/31/12
f 92/32/13 28/30/13 30/33/13 94/34/13
f 94/35/14 30/33/14 32/36/14 96/37/14
f 176/38/15 161/39/15 193/39/15 195/38/15
f 65/40/16 2/41/16 4/2/16 68/42/16
f 177/43/17 178/44/17 179/45/17 180/46/17 181/47/17 182/48/17 183/49/17 184/50/17 185/51/17 186/52/17 187/53/17 188/54/17 189/55/17 190/56/17 191/57/17 192/58/17
f 64/59/18 95/60/18 66/61/18 33/62/18
f 62/63/19 93/64/19 95/65/19 64/59/19
f 60/66/20 91/67/20 93/68/20 62/63/20
f 58/69/21 89/70/21 91/71/21 60/72/21
f 56/73/22 87/74/22 89/75/22 58/69/22
f 54/76/23 85/77/23 87/78/23 56/73/23
f 52/79/15 83/80/15 85/81/15 54/82/15
f 50/83/24 81/84/24 83/85/24 52/86/24
f 48/87/25 79/88/25 81/89/25 50/83/25
f 46/90/26 77/91/26 79/92/26 48/87/26
f 44/93/27 75/94/27 77/95/27 46/96/27
f 42/97/28 73/98/28 75/99/28 44/93/28
f 40/100/29 71/101/29 73/102/29 42/103/29
f 38/104/30 69/105/30 71/106/30 40/107/30
f 36/108/31 67/109/31 69/110/31 38/111/31
f 33/112/32 66/113/32 67/114/32 36/108/32
f 3/115/33 35/116/33 37/117/33 5/118/33
f 96/37/34 32/36/34 2/119/34 65/120/34
f 29/121/35 61/122/35 63/123/35 31/124/35
f 27/125/36 59/126/36 61/127/36 29/121/36
f 25/128/37 57/129/37 59/130/37 27/125/37
f 23/131/38 55/132/38 57/129/38 25/128/38
f 21/133/39 53/134/39 55/132/39 23/131/39
f 19/135/40 51/136/40 53/137/40 21/133/40
f 17/138/41 49/139/41 51/140/41 19/135/41
f 15/141/42 47/142/42 49/139/42 17/138/42
f 13/143/43 45/144/43 47/142/43 15/141/43
f 11/145/44 43/146/44 45/147/44 13/143/44
f 9/148/45 41/149/45 43/150/45 11/145/45
f 7/151/46 39/152/46 41/149/46 9/148/46
f 5/118/47 37/153/47 39/152/47 7/151/47
f 31/124/48 63/123/48 34/154/48 1/155/48
f 1/156/50 34/157/50 35/158/50 3/115/50
f 4/159/49 2/160/49 162/161/49 161/39/49
f 2/160/49 32/162/49 163/163/49 162/161/49
f 32/162/49 30/164/49 164/165/49 163/163/49
f 30/164/49 28/166/49 165/167/49 164/165/49
f 28/166/49 26/168/49 166/169/49 165/167/49
f 26/168/49 24/170/49 167/171/49 166/169/49
f 24/170/49 22/172/49 168/173/49 167/171/49
f 22/172/49 20/174/49 169/175/49 168/173/49
f 20/174/49 18/176/49 170/177/49 169/175/49
f 18/176/49 16/178/49 171/179/49 170/177/49
f 16/178/49 14/180/49 172/181/49 171/179/49
f 14/180/49 12/182/49 173/183/49 172/181/49
f 12/182/49 10/184/49 174/185/49 173/183/49
f 10/184/49 8/186/49 175/187/49 174/185/49
f 8/186/49 6/188/49 176/38/49 175/187/49
f 6/188/49 4/159/49 161/39/49 176/38/49
f 1/189/17 3/190/17 178/44/17 177/43/17
f 3/190/17 5/191/17 179/45/17 178/44/17
f 5/191/17 7/192/17 180/46/17 179/45/17
f 7/192/17 9/193/17 181/47/17 180/46/17
f 9/193/17 11/194/17 182/48/17 181/47/17
f 11/194/17 13/195/17 183/49/17 182/48/17
f 13/195/17 15/196/17 184/50/17 183/49/17
f 15/196/17 17/197/17 185/51/17 184/50/17
f 17/197/17 19/198/17 186/52/17 185/51/17
f 19/198/17 21/199/17 187/53/17 186/52/17
f 21/199/17 23/200/17 188/54/17 187/53/17
f 23/200/17 25/201/17 189/55/17 188/54/17
f 25/201/17 27/202/17 190/56/17 189/55/17
f 27/202/17 29/203/17 191/57/17 190/56/17
f 29/203/17 31/204/17 192/58/17 191/57/17
f 31/204/17 1/189/17 177/43/17 192/58/17
f 195/38/31 193/39/31 209/39/31 211/38/31
f 169/175/32 170/177/32 203/177/32 202/175/32
f 162/161/25 163/163/25 196/163/25 194/161/25
f 170/177/18 171/179/18 204/179/18 203/177/18
f 163/163/26 164/165/26 197/165/26 196/163/26
f 171/179/19 172/181/19 205/181/19 204/179/19
f 164/165/27 165/167/27 198/167/27 197/165/27
f 172/181/20 173/183/20 206/183/20 205/181/20
f 165/167/28 166/169/28 199/169/28 198/167/28
f 173/183/21 174/185/21 207/185/21 206/183/21
f 166/169/29 167/171/29 200/171/29 199/169/29
f 174/185/22 175/187/22 208/187/22 207/185/22
f 167/171/30 168/173/30 201/173/30 200/171/30
f 161/39/24 162/161/24 194/161/24 193/39/24
f 175/187/23 176/38/23 195/38/23 208/187/23
f 168/173/31 169/175/31 202/175/31 201/173/31
f 221/181/20 222/183/20 238/183/20 237/181/20
f 202/175/24 203/177/24 219/177/24 218/175/24
f 194/161/18 196/163/18 212/163/18 210/161/18
f 203/177/25 204/179/25 220/179/25 219/177/25
f 196/163/19 197/165/19 213/165/19 212/163/19
f 204/179/26 205/181/26 221/181/26 220/179/26
f 197/165/20 198/167/20 214/167/20 213/165/20
f 205/181/27 206/183/27 222/183/27 221/181/27
f 198/167/21 199/169/21 215/169/21 214/167/21
f 206/183/28 207/185/28 223/185/28 222/183/28
f 199/169/22 200/171/22 216/171/22 215/169/22
f 207/185/29 208/187/29 224/187/29 223/185/29
f 200/171/23 201/173/23 217/173/23 216/171/23
f 193/39/32 194/161/32 210/161/32 209/39/32
f 208/187/30 195/38/30 211/38/30 224/187/30
f 201/173/15 202/175/15 218/175/15 217/173/15
f 225/39/49 226/161/49 228/163/49 229/165/49 230/167/49 231/169/49 232/171/49 233/173/49 234/175/49 235/177/49 236/179/49 237/181/49 238/183/49 239/185/49 240/187/49 227/38/49
f 214/167/28 215/169/28 231/169/28 230/167/28
f 222/183/21 223/185/21 239/185/21 238/183/21
f 215/169/29 216/171/29 232/171/29 231/169/29
f 223/185/22 224/187/22 240/187/22 239/185/22
f 216/171/30 217/173/30 233/173/30 232/171/30
f 209/39/24 210/161/24 226/161/24 225/39/24
f 224/187/23 211/38/23 227/38/23 240/187/23
f 217/173/31 218/175/31 234/175/31 233/173/31
f 211/38/15 209/39/15 225/39/15 227/38/15
f 218/175/32 219/177/32 235/177/32 234/175/32
f 210/161/25 212/163/25 228/163/25 226/161/25
f 219/177/18 220/179/18 236/179/18 235/177/18
f 212/163/26 213/165/26 229/165/26 228/163/26
f 220/179/19 221/181/19 237/181/19 236/179/19
f 213/165/27 214/167/27 230/167/27 229/165/27
usemtl Metal.002
f 85/81/17 83/80/17 143/80/17 141/81/17
f 67/114/17 66/113/17 132/113/17 159/114/17
f 39/152/17 37/153/17 125/153/17 123/152/17
f 84/22/49 86/24/49 142/24/49 144/22/49
f 65/40/49 68/42/49 160/42/49 131/40/49
f 57/129/17 55/132/17 107/132/17 105/129/17
f 38/104/49 40/107/49 124/107/49 126/104/49
f 69/110/17 67/109/17 159/109/17 157/110/17
f 56/73/49 58/69/49 106/69/49 108/73/49
f 87/78/17 85/77/17 141/77/17 139/78/17
f 68/1/49 70/4/49 158/4/49 160/1/49
f 41/149/17 39/152/17 123/152/17 121/149/17
f 86/25/49 88/27/49 140/27/49 142/25/49
f 59/130/17 57/129/17 105/129/17 103/130/17
f 40/100/49 42/103/49 122/103/49 124/100/49
f 71/106/17 69/105/17 157/105/17 155/106/17
f 58/69/49 60/72/49 104/72/49 106/69/49
f 89/75/17 87/74/17 139/74/17 137/75/17
f 70/5/49 72/7/49 156/7/49 158/5/49
f 43/150/17 41/149/17 121/149/17 119/150/17
f 88/27/49 90/29/49 138/29/49 140/27/49
f 61/127/17 59/126/17 103/126/17 101/127/17
f 42/97/49 44/93/49 120/93/49 122/97/49
f 73/102/17 71/101/17 155/101/17 153/102/17
f 60/66/49 62/63/49 102/63/49 104/66/49
f 91/71/17 89/70/17 137/70/17 135/71/17
f 72/7/49 74/9/49 154/9/49 156/7/49
f 45/147/17 43/146/17 119/146/17 117/147/17
f 90/29/49 92/31/49 136/31/49 138/29/49
f 63/123/17 61/122/17 101/122/17 97/123/17
f 44/93/49 46/96/49 118/96/49 120/93/49
f 75/99/17 73/98/17 153/98/17 151/99/17
f 98/59/51 99/62/51 100/154/51 97/123/51
f 102/63/52 98/59/52 97/123/52 101/122/52
f 104/66/53 102/63/53 101/127/53 103/126/53
f 106/69/54 104/72/54 103/130/54 105/129/54
f 108/73/55 106/69/55 105/129/55 107/132/55
f 110/76/56 108/73/56 107/132/56 109/134/56
f 112/79/57 110/82/57 109/137/57 111/136/57
f 114/83/58 112/86/58 111/140/58 113/139/58
f 116/87/59 114/83/59 113/139/59 115/142/59
f 118/90/60 116/87/60 115/142/60 117/144/60
f 120/93/61 118/96/61 117/147/61 119/146/61
f 122/97/62 120/93/62 119/150/62 121/149/62
f 124/100/63 122/103/63 121/149/63 123/152/63
f 126/104/64 124/107/64 123/152/64 125/153/64
f 128/108/65 126/111/65 125/117/65 127/116/65
f 99/112/66 128/108/66 127/158/66 100/157/66
f 130/37/67 131/120/67 132/61/67 129/60/67
f 134/35/68 130/37/68 129/65/68 133/64/68
f 136/32/69 134/34/69 133/68/69 135/67/69
f 138/29/70 136/31/70 135/71/70 137/70/70
f 140/27/71 138/29/71 137/75/71 139/74/71
f 142/25/72 140/27/72 139/78/72 141/77/72
f 144/22/73 142/24/73 141/81/73 143/80/73
f 146/19/74 144/21/74 143/85/74 145/84/74
f 148/17/75 146/19/75 145/89/75 147/88/75
f 150/15/76 148/17/76 147/92/76 149/91/76
f 152/12/77 150/14/77 149/95/77 151/94/77
f 154/9/78 152/11/78 151/99/78 153/98/78
f 156/7/79 154/9/79 153/102/79 155/101/79
f 158/5/80 156/7/80 155/106/80 157/105/80
f 160/1/81 158/4/81 157/110/81 159/109/81
f 131/40/82 160/42/82 159/114/82 132/113/82
f 54/76/49 56/73/49 108/73/49 110/76/49
f 36/108/49 38/111/49 126/111/49 128/108/49
f 55/132/17 53/134/17 109/134/17 107/132/17
f 82/19/49 84/21/49 144/21/49 146/19/49
f 37/117/17 35/116/17 127/116/17 125/117/17
f 83/85/17 81/84/17 145/84/17 143/85/17
f 33/112/49 36/108/49 128/108/49 99/112/49
f 52/79/49 54/82/49 110/82/49 112/79/49
f 35/158/17 34/157/17 100/157/17 127/158/17
f 53/137/17 51/136/17 111/136/17 109/137/17
f 80/17/49 82/19/49 146/19/49 148/17/49
f 81/89/17 79/88/17 147/88/17 145/89/17
f 96/37/49 65/120/49 131/120/49 130/37/49
f 50/83/49 52/86/49 112/86/49 114/83/49
f 51/140/17 49/139/17 113/139/17 111/140/17
f 78/15/49 80/17/49 148/17/49 150/15/49
f 66/61/17 95/60/17 129/60/17 132/61/17
f 79/92/17 77/91/17 149/91/17 147/92/17
f 48/87/49 50/83/49 114/83/49 116/87/49
f 94/35/49 96/37/49 130/37/49 134/35/49
f 49/139/17 47/142/17 115/142/17 113/139/17
f 64/59/49 33/62/49 99/62/49 98/59/49
f 76/12/49 78/14/49 150/14/49 152/12/49
f 95/65/17 93/64/17 133/64/17 129/65/17
f 77/95/17 75/94/17 151/94/17 149/95/17
f 46/90/49 48/87/49 116/87/49 118/90/49
f 34/154/17 63/123/17 97/123/17 100/154/17
f 92/32/49 94/34/49 134/34/49 136/32/49
f 47/142/17 45/144/17 117/144/17 115/142/17
f 74/9/49 76/11/49 152/11/49 154/9/49
f 93/68/17 91/67/17 135/67/17 133/68/17
f 62/63/49 64/59/49 98/59/49 102/63/49
