# Blender 4.3.2
# www.blender.org
mtllib barrel_big.mtl
o Cylinder.005
v 4.391336 0.006457 -4.213154
v 4.391336 3.290735 -4.213154
v 4.799797 0.006457 -4.137033
v 4.799797 3.290735 -4.137033
v 5.146072 0.006457 -3.920260
v 5.146072 3.290735 -3.920260
v 5.377447 0.006457 -3.595837
v 5.377447 3.290735 -3.595837
v 5.458695 0.006457 -3.213154
v 5.458695 3.290735 -3.213154
v 5.377447 0.006457 -2.830470
v 5.377447 3.290735 -2.830470
v 5.146072 0.006457 -2.506047
v 5.146072 3.290735 -2.506047
v 4.799797 0.006457 -2.289274
v 4.799797 3.290735 -2.289274
v 4.391336 0.006457 -2.213154
v 4.391336 3.290735 -2.213154
v 3.982876 0.006457 -2.289274
v 3.982876 3.290735 -2.289274
v 3.636600 0.006457 -2.506047
v 3.636600 3.290735 -2.506047
v 3.405226 0.006457 -2.830470
v 3.405226 3.290735 -2.830470
v 3.323978 0.006457 -3.213154
v 3.323978 3.290735 -3.213154
v 3.405226 0.006457 -3.595837
v 3.405226 3.290735 -3.595837
v 3.636600 0.006457 -3.920260
v 3.636600 3.290735 -3.920260
v 3.982876 0.006457 -4.137033
v 3.982876 3.290735 -4.137033
v 4.391336 1.429117 -4.334446
v 4.391336 0.758675 -4.297262
v 4.834151 0.758675 -4.214740
v 4.849339 1.429117 -4.249093
v 5.209553 0.758675 -3.979734
v 5.237617 1.429117 -4.006027
v 5.460388 0.758675 -3.628024
v 5.497055 1.429117 -3.642254
v 5.548469 0.758675 -3.213154
v 5.588157 1.429117 -3.213154
v 5.460388 0.758675 -2.798283
v 5.497055 1.429117 -2.784054
v 5.209553 0.758675 -2.446573
v 5.237617 1.429117 -2.420280
v 4.834151 0.758675 -2.211568
v 4.849339 1.429117 -2.177215
v 4.391336 0.758675 -2.129045
v 4.391336 1.429117 -2.091861
v 3.948522 0.758675 -2.211568
v 3.933333 1.429117 -2.177215
v 3.573120 0.758675 -2.446573
v 3.545056 1.429117 -2.420280
v 3.322286 0.758675 -2.798283
v 3.285618 1.429117 -2.784054
v 3.234204 0.758675 -3.213154
v 3.194516 1.429117 -3.213154
v 3.322286 0.758675 -3.628024
v 3.285618 1.429117 -3.642254
v 3.573120 0.758675 -3.979734
v 3.545056 1.429117 -4.006027
v 3.948522 0.758675 -4.214740
v 3.933333 1.429117 -4.249093
v 4.391336 2.619737 -4.294325
v 4.391336 1.950182 -4.334446
v 4.849339 1.950183 -4.249093
v 4.832952 2.619738 -4.212026
v 5.237617 1.950183 -4.006027
v 5.207335 2.619738 -3.977657
v 5.497055 1.950183 -3.642254
v 5.457490 2.619738 -3.626900
v 5.588157 1.950183 -3.213154
v 5.545333 2.619738 -3.213154
v 5.497055 1.950183 -2.784054
v 5.457490 2.619738 -2.799407
v 5.237617 1.950183 -2.420280
v 5.207335 2.619738 -2.448650
v 4.849339 1.950183 -2.177215
v 4.832952 2.619738 -2.214282
v 4.391336 1.950183 -2.091861
v 4.391336 2.619738 -2.131982
v 3.933333 1.950183 -2.177215
v 3.949721 2.619738 -2.214282
v 3.545056 1.950183 -2.420280
v 3.575337 2.619738 -2.448650
v 3.285618 1.950183 -2.784054
v 3.325182 2.619738 -2.799407
v 3.194516 1.950183 -3.213154
v 3.237339 2.619738 -3.213154
v 3.285618 1.950183 -3.642254
v 3.325182 2.619738 -3.626900
v 3.545056 1.950183 -4.006027
v 3.575337 2.619738 -3.977657
v 3.933333 1.950183 -4.249093
v 3.949721 2.619738 -4.212026
v 3.899983 0.758675 -4.324525
v 3.883130 1.429117 -4.362643
v 4.391336 1.429117 -4.457353
v 4.391336 0.758675 -4.416093
v 3.483434 0.758675 -4.063760
v 3.452294 1.429117 -4.092935
v 3.205105 0.758675 -3.673499
v 3.164419 1.429117 -3.689288
v 3.107368 0.758675 -3.213154
v 3.063331 1.429117 -3.213154
v 3.205105 0.758675 -2.752809
v 3.164419 1.429117 -2.737019
v 3.483434 0.758675 -2.362547
v 3.452294 1.429117 -2.333372
v 3.899983 0.758675 -2.101782
v 3.883130 1.429117 -2.063664
v 4.391336 0.758675 -2.010214
v 4.391336 1.429117 -1.968955
v 4.882689 0.758675 -2.101782
v 4.899543 1.429117 -2.063664
v 5.299239 0.758675 -2.362547
v 5.330379 1.429117 -2.333372
v 5.577568 0.758675 -2.752809
v 5.618254 1.429117 -2.737019
v 5.675304 0.758675 -3.213154
v 5.719342 1.429117 -3.213154
v 5.577568 0.758675 -3.673499
v 5.618254 1.429117 -3.689288
v 5.299239 0.758675 -4.063760
v 5.330379 1.429117 -4.092935
v 4.882689 0.758675 -4.324525
v 4.899543 1.429117 -4.362643
v 3.883130 1.950183 -4.362643
v 3.901315 2.619738 -4.321513
v 4.391336 2.619737 -4.412833
v 4.391336 1.950182 -4.457353
v 3.452294 1.950183 -4.092935
v 3.485894 2.619738 -4.061455
v 3.164419 1.950183 -3.689288
v 3.208320 2.619738 -3.672251
v 3.063331 1.950183 -3.213154
v 3.110847 2.619738 -3.213154
v 3.164419 1.950183 -2.737019
v 3.208320 2.619738 -2.754056
v 3.452294 1.950183 -2.333372
v 3.485894 2.619738 -2.364852
v 3.883130 1.950183 -2.063664
v 3.901315 2.619738 -2.104794
v 4.391336 1.950183 -1.968955
v 4.391336 2.619738 -2.013474
v 4.899543 1.950183 -2.063664
v 4.881358 2.619738 -2.104794
v 5.330379 1.950183 -2.333372
v 5.296779 2.619738 -2.364852
v 5.618254 1.950183 -2.737019
v 5.574354 2.619738 -2.754056
v 5.719342 1.950183 -3.213154
v 5.671825 2.619738 -3.213154
v 5.618254 1.950183 -3.689288
v 5.574354 2.619738 -3.672251
v 5.330379 1.950183 -4.092935
v 5.296779 2.619738 -4.061455
v 4.899543 1.950183 -4.362643
v 4.881358 2.619738 -4.321513
v 4.723705 3.290735 -3.964926
v 4.391336 3.290735 -4.026866
v 4.058967 3.290735 -3.964926
v 3.777199 3.290735 -3.788535
v 3.588926 3.290735 -3.524548
v 3.522814 3.290735 -3.213154
v 3.588926 3.290735 -2.901759
v 3.777199 3.290735 -2.637772
v 4.058967 3.290735 -2.461381
v 4.391336 3.290735 -2.399441
v 4.723705 3.290735 -2.461381
v 5.005475 3.290735 -2.637772
v 5.193747 3.290735 -2.901759
v 5.259860 3.290735 -3.213154
v 5.193747 3.290735 -3.524548
v 5.005475 3.290735 -3.788535
v 4.391336 0.006457 -4.026866
v 4.723705 0.006457 -3.964926
v 5.005475 0.006457 -3.788535
v 5.193747 0.006457 -3.524548
v 5.259860 0.006457 -3.213154
v 5.193747 0.006457 -2.901759
v 5.005475 0.006457 -2.637772
v 4.723705 0.006457 -2.461381
v 4.391336 0.006457 -2.399441
v 4.058967 0.006457 -2.461381
v 3.777199 0.006457 -2.637772
v 3.588926 0.006457 -2.901759
v 3.522814 0.006457 -3.213154
v 3.588926 0.006457 -3.524548
v 3.777199 0.006457 -3.788535
v 4.058967 0.006457 -3.964926
v 4.723705 3.045776 -3.964926
v 4.391336 3.045776 -4.026866
v 5.005475 3.045776 -3.788535
v 4.058967 3.045776 -3.964926
v 3.777199 3.045776 -3.788535
v 3.588926 3.045776 -3.524548
v 3.522814 3.045776 -3.213154
v 3.588926 3.045776 -2.901759
v 3.777199 3.045776 -2.637772
v 4.058967 3.045776 -2.461381
v 4.391336 3.045776 -2.399441
v 4.723705 3.045776 -2.461381
v 5.005475 3.045776 -2.637772
v 5.193747 3.045776 -2.901759
v 5.259860 3.045776 -3.213154
v 5.193747 3.045776 -3.524548
v 4.391336 0.251416 -4.026866
v 4.723705 0.251416 -3.964926
v 4.058967 0.251416 -3.964926
v 5.005475 0.251416 -3.788535
v 5.193747 0.251416 -3.524548
v 5.259860 0.251416 -3.213154
v 5.193747 0.251416 -2.901759
v 5.005475 0.251416 -2.637772
v 4.723705 0.251416 -2.461381
v 4.391336 0.251416 -2.399441
v 4.058967 0.251416 -2.461381
v 3.777199 0.251416 -2.637772
v 3.588926 0.251416 -2.901759
v 3.522814 0.251416 -3.213154
v 3.588926 0.251416 -3.524548
v 3.777199 0.251416 -3.788535
vn 0.5268 0.1201 -0.8415
vn 0.8080 0.1231 -0.5762
vn 0.9705 0.1253 -0.2060
vn 0.9705 0.1253 0.2060
vn 0.8080 0.1231 0.5762
vn 0.5268 0.1201 0.8415
vn 0.1819 0.1181 0.9762
vn -0.1819 0.1181 0.9762
vn -0.5268 0.1201 0.8415
vn -0.8080 0.1231 0.5762
vn -0.9705 0.1253 0.2060
vn -0.9705 0.1253 -0.2060
vn -0.8080 0.1231 -0.5762
vn -0.5268 0.1201 -0.8415
vn 0.1832 -0.0000 -0.9831
vn 0.1819 0.1181 -0.9762
vn -0.9782 -0.0000 0.2077
vn -0.1832 -0.0000 -0.9831
vn -0.5306 -0.0000 -0.8476
vn -0.8142 -0.0000 -0.5806
vn -0.9782 -0.0000 -0.2077
vn -0.8142 -0.0000 0.5806
vn -0.5306 -0.0000 0.8476
vn -0.1832 -0.0000 0.9831
vn 0.1832 -0.0000 0.9831
vn 0.5306 -0.0000 0.8476
vn 0.8142 -0.0000 0.5806
vn 0.9782 -0.0000 0.2077
vn 0.9782 -0.0000 -0.2077
vn 0.8142 -0.0000 -0.5806
vn 0.5306 -0.0000 -0.8476
vn 0.5273 -0.1111 -0.8424
vn -0.1819 0.1181 -0.9762
vn -0.5273 -0.1111 -0.8424
vn -0.8089 -0.1139 -0.5769
vn -0.9716 -0.1160 -0.2063
vn -0.9716 -0.1160 0.2063
vn -0.8089 -0.1139 0.5769
vn -0.5273 -0.1111 0.8424
vn -0.1821 -0.1093 0.9772
vn 0.1821 -0.1093 0.9772
vn 0.5273 -0.1111 0.8424
vn 0.8089 -0.1139 0.5769
vn 0.9716 -0.1160 0.2063
vn 0.9716 -0.1160 -0.2063
vn 0.8089 -0.1139 -0.5769
vn -0.1821 -0.1093 -0.9772
vn -0.0000 -1.0000 -0.0000
vn -0.0000 1.0000 -0.0000
vn 0.1821 -0.1093 -0.9772
vn -0.1829 -0.0604 -0.9813
vn -0.5296 -0.0614 -0.8460
vn -0.8125 -0.0630 -0.5795
vn -0.9762 -0.0641 -0.2073
vn -0.9762 -0.0641 0.2073
vn -0.8125 -0.0630 0.5795
vn -0.5296 -0.0614 0.8460
vn -0.1829 -0.0604 0.9813
vn 0.1829 -0.0604 0.9813
vn 0.5296 -0.0614 0.8460
vn 0.8125 -0.0630 0.5795
vn 0.9762 -0.0641 0.2073
vn 0.9762 -0.0641 -0.2073
vn 0.8125 -0.0630 -0.5795
vn 0.5296 -0.0614 -0.8460
vn 0.1829 -0.0604 -0.9813
vn -0.1828 0.0652 -0.9810
vn -0.5294 0.0663 -0.8457
vn -0.8123 0.0680 -0.5793
vn -0.9758 0.0693 -0.2072
vn -0.9758 0.0693 0.2072
vn -0.8123 0.0680 0.5793
vn -0.5294 0.0663 0.8457
vn -0.1828 0.0652 0.9810
vn 0.1828 0.0652 0.9810
vn 0.5294 0.0663 0.8457
vn 0.8123 0.0680 0.5793
vn 0.9758 0.0693 0.2072
vn 0.9758 0.0693 -0.2072
vn 0.8123 0.0680 -0.5793
vn 0.5294 0.0663 -0.8457
vn 0.1828 0.0652 -0.9810
vt 0.937500 0.891252
vt 0.937500 1.000000
vt 0.875000 1.000000
vt 0.875000 0.891252
vt 0.875000 0.891252
vt 0.812500 1.000000
vt 0.812500 0.891252
vt 0.750000 1.000000
vt 0.750000 0.891252
vt 0.687500 1.000000
vt 0.687500 0.891252
vt 0.687500 0.891252
vt 0.625000 1.000000
vt 0.625000 0.891252
vt 0.625000 0.891252
vt 0.562500 1.000000
vt 0.562500 0.891252
vt 0.500000 1.000000
vt 0.500000 0.891252
vt 0.437500 1.000000
vt 0.437500 0.891252
vt 0.437500 0.891252
vt 0.375000 1.000000
vt 0.375000 0.891252
vt 0.375000 0.891252
vt 0.312500 1.000000
vt 0.312500 0.891252
vt 0.250000 1.000000
vt 0.250000 0.891252
vt 0.187500 1.000000
vt 0.187500 0.891252
vt 0.187500 0.891252
vt 0.125000 1.000000
vt 0.125000 0.891252
vt 0.125000 0.891252
vt 0.062500 1.000000
vt 0.062500 0.891252
vt 0.750000 0.054709
vt 0.675265 0.069575
vt 1.000000 0.891252
vt 1.000000 1.000000
vt 0.937500 0.891252
vt 0.445291 0.250000
vt 0.430425 0.324735
vt 0.062500 0.720877
vt 0.062500 0.791623
vt 0.000000 0.791623
vt 0.000000 0.720877
vt 0.125000 0.720877
vt 0.125000 0.791623
vt 0.062500 0.791623
vt 0.187500 0.720877
vt 0.187500 0.791623
vt 0.125000 0.791623
vt 0.250000 0.720877
vt 0.250000 0.791623
vt 0.187500 0.791623
vt 0.187500 0.720877
vt 0.312500 0.720877
vt 0.312500 0.791623
vt 0.250000 0.791623
vt 0.375000 0.720877
vt 0.375000 0.791623
vt 0.312500 0.791623
vt 0.437500 0.720877
vt 0.437500 0.791623
vt 0.375000 0.791623
vt 0.375000 0.720877
vt 0.500000 0.720877
vt 0.500000 0.791623
vt 0.437500 0.791623
vt 0.437500 0.720877
vt 0.562500 0.720877
vt 0.562500 0.791623
vt 0.500000 0.791623
vt 0.625000 0.720877
vt 0.625000 0.791623
vt 0.562500 0.791623
vt 0.687500 0.720877
vt 0.687500 0.791623
vt 0.625000 0.791623
vt 0.625000 0.720877
vt 0.750000 0.720877
vt 0.750000 0.791623
vt 0.687500 0.791623
vt 0.812500 0.720877
vt 0.812500 0.791623
vt 0.750000 0.791623
vt 0.750000 0.720877
vt 0.875000 0.720877
vt 0.875000 0.791623
vt 0.812500 0.791623
vt 0.812500 0.720877
vt 0.937500 0.720877
vt 0.937500 0.791623
vt 0.875000 0.791623
vt 0.875000 0.720877
vt 1.000000 0.720877
vt 1.000000 0.791623
vt 0.937500 0.791623
vt 0.937500 0.500000
vt 0.937500 0.621352
vt 0.875000 0.621352
vt 0.875000 0.500000
vt 0.000000 1.000000
vt 0.000000 0.891252
vt 0.125000 0.500000
vt 0.125000 0.621352
vt 0.062500 0.621352
vt 0.062500 0.500000
vt 0.187500 0.500000
vt 0.187500 0.621352
vt 0.125000 0.621352
vt 0.250000 0.500000
vt 0.250000 0.621352
vt 0.187500 0.621352
vt 0.312500 0.500000
vt 0.312500 0.621352
vt 0.375000 0.500000
vt 0.375000 0.621352
vt 0.437500 0.500000
vt 0.437500 0.621352
vt 0.375000 0.621352
vt 0.500000 0.500000
vt 0.500000 0.621352
vt 0.437500 0.621352
vt 0.562500 0.500000
vt 0.562500 0.621352
vt 0.625000 0.500000
vt 0.625000 0.621352
vt 0.687500 0.500000
vt 0.687500 0.621352
vt 0.625000 0.621352
vt 0.750000 0.500000
vt 0.750000 0.621352
vt 0.687500 0.621352
vt 0.812500 0.500000
vt 0.812500 0.621352
vt 0.875000 0.621352
vt 0.000000 0.621352
vt 0.000000 0.500000
vt 1.000000 0.500000
vt 1.000000 0.621352
vt 0.937500 0.621352
vt 0.341844 0.471731
vt 0.250000 0.490000
vt 0.250000 0.445291
vt 0.324735 0.430425
vt 0.158156 0.471731
vt 0.175265 0.430425
vt 0.080294 0.419706
vt 0.111908 0.388092
vt 0.028269 0.341844
vt 0.069575 0.324735
vt 0.010000 0.250000
vt 0.054709 0.250000
vt 0.028269 0.158156
vt 0.069575 0.175265
vt 0.080294 0.080294
vt 0.111908 0.111908
vt 0.158156 0.028269
vt 0.175265 0.069575
vt 0.250000 0.010000
vt 0.250000 0.054709
vt 0.341844 0.028269
vt 0.324735 0.069575
vt 0.419706 0.080294
vt 0.388092 0.111908
vt 0.471731 0.158156
vt 0.430425 0.175265
vt 0.490000 0.250000
vt 0.471731 0.341844
vt 0.419706 0.419706
vt 0.388092 0.388092
vt 0.750000 0.490000
vt 0.841844 0.471731
vt 0.824735 0.430425
vt 0.750000 0.445291
vt 0.919706 0.419706
vt 0.888092 0.388092
vt 0.971731 0.341844
vt 0.930425 0.324735
vt 0.990000 0.250000
vt 0.945291 0.250000
vt 0.971731 0.158156
vt 0.930425 0.175265
vt 0.919706 0.080294
vt 0.888092 0.111908
vt 0.841844 0.028269
vt 0.824735 0.069575
vt 0.750000 0.010000
vt 0.658156 0.028269
vt 0.580294 0.080294
vt 0.611908 0.111908
vt 0.528269 0.158156
vt 0.569575 0.175265
vt 0.510000 0.250000
vt 0.554709 0.250000
vt 0.528269 0.341844
vt 0.569575 0.324735
vt 0.580294 0.419706
vt 0.611908 0.388092
vt 0.658156 0.471731
vt 0.675265 0.430425
s 0
usemtl Wood.003
f 68/1/1 4/2/1 6/3/1 70/4/1
f 70/5/2 6/3/2 8/6/2 72/7/2
f 72/7/3 8/6/3 10/8/3 74/9/3
f 74/9/4 10/8/4 12/10/4 76/11/4
f 76/12/5 12/10/5 14/13/5 78/14/5
f 78/15/6 14/13/6 16/16/6 80/17/6
f 80/17/7 16/16/7 18/18/7 82/19/7
f 82/19/8 18/18/8 20/20/8 84/21/8
f 84/22/9 20/20/9 22/23/9 86/24/9
f 86/25/10 22/23/10 24/26/10 88/27/10
f 88/27/11 24/26/11 26/28/11 90/29/11
f 90/29/12 26/28/12 28/30/12 92/31/12
f 92/32/13 28/30/13 30/33/13 94/34/13
f 94/35/14 30/33/14 32/36/14 96/37/14
f 185/38/15 186/39/15 219/39/15 218/38/15
f 65/40/16 2/41/16 4/2/16 68/42/16
f 174/43/17 175/44/17 208/44/17 207/43/17
f 64/45/18 95/46/18 66/47/18 33/48/18
f 62/49/19 93/50/19 95/51/19 64/45/19
f 60/52/20 91/53/20 93/54/20 62/49/20
f 58/55/21 89/56/21 91/57/21 60/58/21
f 56/59/17 87/60/17 89/61/17 58/55/17
f 54/62/22 85/63/22 87/64/22 56/59/22
f 52/65/23 83/66/23 85/67/23 54/68/23
f 50/69/24 81/70/24 83/71/24 52/72/24
f 48/73/25 79/74/25 81/75/25 50/69/25
f 46/76/26 77/77/26 79/78/26 48/73/26
f 44/79/27 75/80/27 77/81/27 46/82/27
f 42/83/28 73/84/28 75/85/28 44/79/28
f 40/86/29 71/87/29 73/88/29 42/89/29
f 38/90/30 69/91/30 71/92/30 40/93/30
f 36/94/31 67/95/31 69/96/31 38/97/31
f 33/98/15 66/99/15 67/100/15 36/94/15
f 3/101/32 35/102/32 37/103/32 5/104/32
f 96/37/33 32/36/33 2/105/33 65/106/33
f 29/107/34 61/108/34 63/109/34 31/110/34
f 27/111/35 59/112/35 61/113/35 29/107/35
f 25/114/36 57/115/36 59/116/36 27/111/36
f 23/117/37 55/118/37 57/115/37 25/114/37
f 21/119/38 53/120/38 55/118/38 23/117/38
f 19/121/39 51/122/39 53/123/39 21/119/39
f 17/124/40 49/125/40 51/126/40 19/121/40
f 15/127/41 47/128/41 49/125/41 17/124/41
f 13/129/42 45/130/42 47/128/42 15/127/42
f 11/131/43 43/132/43 45/133/43 13/129/43
f 9/134/44 41/135/44 43/136/44 11/131/44
f 7/137/45 39/138/45 41/135/45 9/134/45
f 5/104/46 37/139/46 39/138/46 7/137/46
f 31/110/47 63/109/47 34/140/47 1/141/47
f 1/142/50 34/143/50 35/144/50 3/101/50
f 4/145/49 2/146/49 162/147/49 161/148/49
f 2/146/49 32/149/49 163/150/49 162/147/49
f 32/149/49 30/151/49 164/152/49 163/150/49
f 30/151/49 28/153/49 165/154/49 164/152/49
f 28/153/49 26/155/49 166/156/49 165/154/49
f 26/155/49 24/157/49 167/158/49 166/156/49
f 24/157/49 22/159/49 168/160/49 167/158/49
f 22/159/49 20/161/49 169/162/49 168/160/49
f 20/161/49 18/163/49 170/164/49 169/162/49
f 18/163/49 16/165/49 171/166/49 170/164/49
f 16/165/49 14/167/49 172/168/49 171/166/49
f 14/167/49 12/169/49 173/170/49 172/168/49
f 12/169/49 10/171/49 174/43/49 173/170/49
f 10/171/49 8/172/49 175/44/49 174/43/49
f 8/172/49 6/173/49 176/174/49 175/44/49
f 6/173/49 4/145/49 161/148/49 176/174/49
f 1/175/48 3/176/48 178/177/48 177/178/48
f 3/176/48 5/179/48 179/180/48 178/177/48
f 5/179/48 7/181/48 180/182/48 179/180/48
f 7/181/48 9/183/48 181/184/48 180/182/48
f 9/183/48 11/185/48 182/186/48 181/184/48
f 11/185/48 13/187/48 183/188/48 182/186/48
f 13/187/48 15/189/48 184/190/48 183/188/48
f 15/189/48 17/191/48 185/38/48 184/190/48
f 17/191/48 19/192/48 186/39/48 185/38/48
f 19/192/48 21/193/48 187/194/48 186/39/48
f 21/193/48 23/195/48 188/196/48 187/194/48
f 23/195/48 25/197/48 189/198/48 188/196/48
f 25/197/48 27/199/48 190/200/48 189/198/48
f 27/199/48 29/201/48 191/202/48 190/200/48
f 29/201/48 31/203/48 192/204/48 191/202/48
f 31/203/48 1/175/48 177/178/48 192/204/48
f 193/148/49 194/147/49 196/150/49 197/152/49 198/154/49 199/156/49 200/158/49 201/160/49 202/162/49 203/164/49 204/166/49 205/168/49 206/170/49 207/43/49 208/44/49 195/174/49
f 209/178/48 210/177/48 212/180/48 213/182/48 214/184/48 215/186/48 216/188/48 217/190/48 218/38/48 219/39/48 220/194/48 221/196/48 222/198/48 223/200/48 224/202/48 211/204/48
f 176/174/23 161/148/23 193/148/23 195/174/23
f 175/44/22 176/174/22 195/174/22 208/44/22
f 186/39/31 187/194/31 220/194/31 219/39/31
f 162/147/25 163/150/25 196/150/25 194/147/25
f 187/194/30 188/196/30 221/196/30 220/194/30
f 163/150/26 164/152/26 197/152/26 196/150/26
f 188/196/29 189/198/29 222/198/29 221/196/29
f 164/152/27 165/154/27 198/154/27 197/152/27
f 189/198/28 190/200/28 223/200/28 222/198/28
f 165/154/28 166/156/28 199/156/28 198/154/28
f 177/178/24 178/177/24 210/177/24 209/178/24
f 190/200/27 191/202/27 224/202/27 223/200/27
f 166/156/29 167/158/29 200/158/29 199/156/29
f 192/204/25 177/178/25 209/178/25 211/204/25
f 191/202/26 192/204/26 211/204/26 224/202/26
f 167/158/30 168/160/30 201/160/30 200/158/30
f 178/177/23 179/180/23 212/180/23 210/177/23
f 168/160/31 169/162/31 202/162/31 201/160/31
f 179/180/22 180/182/22 213/182/22 212/180/22
f 169/162/15 170/164/15 203/164/15 202/162/15
f 180/182/17 181/184/17 214/184/17 213/182/17
f 170/164/18 171/166/18 204/166/18 203/164/18
f 181/184/21 182/186/21 215/186/21 214/184/21
f 171/166/19 172/168/19 205/168/19 204/166/19
f 182/186/20 183/188/20 216/188/20 215/186/20
f 172/168/20 173/170/20 206/170/20 205/168/20
f 183/188/19 184/190/19 217/190/19 216/188/19
f 173/170/21 174/43/21 207/43/21 206/170/21
f 184/190/18 185/38/18 218/38/18 217/190/18
f 161/148/24 162/147/24 194/147/24 193/148/24
usemtl Metal.003
f 85/67/48 83/66/48 143/66/48 141/67/48
f 67/100/48 66/99/48 132/99/48 159/100/48
f 39/138/48 37/139/48 125/139/48 123/138/48
f 84/22/49 86/24/49 142/24/49 144/22/49
f 65/40/49 68/42/49 160/42/49 131/40/49
f 57/115/48 55/118/48 107/118/48 105/115/48
f 38/90/49 40/93/49 124/93/49 126/90/49
f 69/96/48 67/95/48 159/95/48 157/96/48
f 56/59/49 58/55/49 106/55/49 108/59/49
f 87/64/48 85/63/48 141/63/48 139/64/48
f 68/1/49 70/4/49 158/4/49 160/1/49
f 41/135/48 39/138/48 123/138/48 121/135/48
f 86/25/49 88/27/49 140/27/49 142/25/49
f 59/116/48 57/115/48 105/115/48 103/116/48
f 40/86/49 42/89/49 122/89/49 124/86/49
f 71/92/48 69/91/48 157/91/48 155/92/48
f 58/55/49 60/58/49 104/58/49 106/55/49
f 89/61/48 87/60/48 139/60/48 137/61/48
f 70/5/49 72/7/49 156/7/49 158/5/49
f 43/136/48 41/135/48 121/135/48 119/136/48
f 88/27/49 90/29/49 138/29/49 140/27/49
f 61/113/48 59/112/48 103/112/48 101/113/48
f 42/83/49 44/79/49 120/79/49 122/83/49
f 73/88/48 71/87/48 155/87/48 153/88/48
f 60/52/49 62/49/49 102/49/49 104/52/49
f 91/57/48 89/56/48 137/56/48 135/57/48
f 72/7/49 74/9/49 154/9/49 156/7/49
f 45/133/48 43/132/48 119/132/48 117/133/48
f 90/29/49 92/31/49 136/31/49 138/29/49
f 63/109/48 61/108/48 101/108/48 97/109/48
f 44/79/49 46/82/49 118/82/49 120/79/49
f 75/85/48 73/84/48 153/84/48 151/85/48
f 98/45/51 99/48/51 100/140/51 97/109/51
f 102/49/52 98/45/52 97/109/52 101/108/52
f 104/52/53 102/49/53 101/113/53 103/112/53
f 106/55/54 104/58/54 103/116/54 105/115/54
f 108/59/55 106/55/55 105/115/55 107/118/55
f 110/62/56 108/59/56 107/118/56 109/120/56
f 112/65/57 110/68/57 109/123/57 111/122/57
f 114/69/58 112/72/58 111/126/58 113/125/58
f 116/73/59 114/69/59 113/125/59 115/128/59
f 118/76/60 116/73/60 115/128/60 117/130/60
f 120/79/61 118/82/61 117/133/61 119/132/61
f 122/83/62 120/79/62 119/136/62 121/135/62
f 124/86/63 122/89/63 121/135/63 123/138/63
f 126/90/64 124/93/64 123/138/64 125/139/64
f 128/94/65 126/97/65 125/103/65 127/102/65
f 99/98/66 128/94/66 127/144/66 100/143/66
f 130/37/67 131/106/67 132/47/67 129/46/67
f 134/35/68 130/37/68 129/51/68 133/50/68
f 136/32/69 134/34/69 133/54/69 135/53/69
f 138/29/70 136/31/70 135/57/70 137/56/70
f 140/27/71 138/29/71 137/61/71 139/60/71
f 142/25/72 140/27/72 139/64/72 141/63/72
f 144/22/73 142/24/73 141/67/73 143/66/73
f 146/19/74 144/21/74 143/71/74 145/70/74
f 148/17/75 146/19/75 145/75/75 147/74/75
f 150/15/76 148/17/76 147/78/76 149/77/76
f 152/12/77 150/14/77 149/81/77 151/80/77
f 154/9/78 152/11/78 151/85/78 153/84/78
f 156/7/79 154/9/79 153/88/79 155/87/79
f 158/5/80 156/7/80 155/92/80 157/91/80
f 160/1/81 158/4/81 157/96/81 159/95/81
f 131/40/82 160/42/82 159/100/82 132/99/82
f 54/62/49 56/59/49 108/59/49 110/62/49
f 36/94/49 38/97/49 126/97/49 128/94/49
f 55/118/48 53/120/48 109/120/48 107/118/48
f 82/19/49 84/21/49 144/21/49 146/19/49
f 37/103/48 35/102/48 127/102/48 125/103/48
f 83/71/48 81/70/48 145/70/48 143/71/48
f 33/98/49 36/94/49 128/94/49 99/98/49
f 52/65/49 54/68/49 110/68/49 112/65/49
f 35/144/48 34/143/48 100/143/48 127/144/48
f 53/123/48 51/122/48 111/122/48 109/123/48
f 80/17/49 82/19/49 146/19/49 148/17/49
f 81/75/48 79/74/48 147/74/48 145/75/48
f 96/37/49 65/106/49 131/106/49 130/37/49
f 50/69/49 52/72/49 112/72/49 114/69/49
f 51/126/48 49/125/48 113/125/48 111/126/48
f 78/15/49 80/17/49 148/17/49 150/15/49
f 66/47/48 95/46/48 129/46/48 132/47/48
f 79/78/48 77/77/48 149/77/48 147/78/48
f 48/73/49 50/69/49 114/69/49 116/73/49
f 94/35/49 96/37/49 130/37/49 134/35/49
f 49/125/48 47/128/48 115/128/48 113/125/48
f 64/45/49 33/48/49 99/48/49 98/45/49
f 76/12/49 78/14/49 150/14/49 152/12/49
f 95/51/48 93/50/48 133/50/48 129/51/48
f 77/81/48 75/80/48 151/80/48 149/81/48
f 46/76/49 48/73/49 116/73/49 118/76/49
f 34/140/48 63/109/48 97/109/48 100/140/48
f 92/32/49 94/34/49 134/34/49 136/32/49
f 47/128/48 45/130/48 117/130/48 115/128/48
f 74/9/49 76/11/49 152/11/49 154/9/49
f 93/54/48 91/53/48 135/53/48 133/54/48
f 62/49/49 64/45/49 98/45/49 102/49/49
