# Blender 4.3.2
# www.blender.org
mtllib oil_barrel.mtl
o Cylinder.008
v 1.652350 1.927413 -5.453556
v 1.652350 1.874930 -5.453556
v 1.786703 1.927413 -5.397905
v 1.786703 1.874930 -5.397905
v 1.842353 1.927413 -5.263553
v 1.842353 1.874930 -5.263553
v 1.786703 1.927413 -5.129201
v 1.786703 1.874930 -5.129201
v 1.652350 1.927413 -5.073551
v 1.652350 1.874930 -5.073551
v 1.517998 1.927413 -5.129201
v 1.517998 1.874930 -5.129201
v 1.462348 1.927413 -5.263553
v 1.462348 1.874930 -5.263553
v 1.517998 1.927413 -5.397905
v 1.517998 1.874930 -5.397905
vn 0.3827 -0.0000 -0.9239
vn 0.9239 -0.0000 -0.3827
vn 0.9239 -0.0000 0.3827
vn 0.3827 -0.0000 0.9239
vn -0.3827 -0.0000 0.9239
vn -0.9239 -0.0000 0.3827
vn -0.0000 -1.0000 -0.0000
vn -0.9239 -0.0000 -0.3827
vn -0.3827 -0.0000 -0.9239
vn -0.0000 1.0000 -0.0000
vt 1.000000 0.500000
vt 1.000000 1.000000
vt 0.875000 1.000000
vt 0.875000 0.500000
vt 0.750000 1.000000
vt 0.750000 0.500000
vt 0.625000 1.000000
vt 0.625000 0.500000
vt 0.500000 1.000000
vt 0.500000 0.500000
vt 0.375000 1.000000
vt 0.375000 0.500000
vt 0.250000 1.000000
vt 0.250000 0.500000
vt 0.419706 0.419706
vt 0.250000 0.490000
vt 0.080294 0.419706
vt 0.010000 0.250000
vt 0.080294 0.080294
vt 0.250000 0.010000
vt 0.419706 0.080294
vt 0.490000 0.250000
vt 0.125000 1.000000
vt 0.125000 0.500000
vt 0.000000 1.000000
vt 0.000000 0.500000
vt 0.750000 0.490000
vt 0.919706 0.419706
vt 0.990000 0.250000
vt 0.919706 0.080294
vt 0.750000 0.010000
vt 0.580294 0.080294
vt 0.510000 0.250000
vt 0.580294 0.419706
s 0
usemtl Metal.005
f 1/1/1 3/4/1 4/3/1 2/2/1
f 3/4/2 5/6/2 6/5/2 4/3/2
f 5/6/3 7/8/3 8/7/3 6/5/3
f 7/8/4 9/10/4 10/9/4 8/7/4
f 9/10/5 11/12/5 12/11/5 10/9/5
f 11/12/6 13/14/6 14/13/6 12/11/6
f 4/15/7 6/22/7 8/21/7 10/20/7 12/19/7 14/18/7 16/17/7 2/16/7
f 13/14/8 15/24/8 16/23/8 14/13/8
f 15/24/9 1/26/9 2/25/9 16/23/9
f 1/27/10 15/34/10 13/33/10 11/32/10 9/31/10 7/30/10 5/29/10 3/28/10
o Cylinder.009
v 1.666894 0.016723 -6.645679
v 1.666894 2.016723 -6.645679
v 2.049577 0.016723 -6.569558
v 2.049577 2.016723 -6.569558
v 2.374001 0.016723 -6.352785
v 2.374001 2.016723 -6.352785
v 2.590774 0.016723 -6.028362
v 2.590774 2.016723 -6.028362
v 2.666894 0.016723 -5.645679
v 2.666894 2.016723 -5.645679
v 2.590774 0.016723 -5.262995
v 2.590774 2.016723 -5.262995
v 2.374001 0.016723 -4.938572
v 2.374001 2.016723 -4.938572
v 2.049577 0.016723 -4.721799
v 2.049577 2.016723 -4.721799
v 1.666894 0.016723 -4.645679
v 1.666894 2.016723 -4.645679
v 1.284210 0.016723 -4.721799
v 1.284210 2.016723 -4.721799
v 0.959787 0.016723 -4.938572
v 0.959787 2.016723 -4.938572
v 0.743014 0.016723 -5.262995
v 0.743014 2.016723 -5.262995
v 0.666894 0.016723 -5.645679
v 0.666894 2.016723 -5.645679
v 0.743014 0.016723 -6.028362
v 0.743014 2.016723 -6.028362
v 0.959787 0.016723 -6.352785
v 0.959787 2.016723 -6.352785
v 1.284210 0.016723 -6.569558
v 1.284210 2.016723 -6.569558
v 1.666894 0.883069 -6.766971
v 1.666894 0.474795 -6.729787
v 2.081764 0.474795 -6.647264
v 2.095994 0.883069 -6.681618
v 2.433475 0.474795 -6.412259
v 2.459767 0.883069 -6.438552
v 2.668480 0.474795 -6.060549
v 2.702833 0.883069 -6.074779
v 2.751003 0.474795 -5.645679
v 2.788186 0.883069 -5.645679
v 2.668480 0.474795 -5.230808
v 2.702833 0.883069 -5.216578
v 2.433475 0.474795 -4.879098
v 2.459767 0.883069 -4.852805
v 2.081764 0.474795 -4.644093
v 2.095994 0.883069 -4.609739
v 1.666894 0.474795 -4.561570
v 1.666894 0.883069 -4.524386
v 1.252024 0.474795 -4.644093
v 1.237794 0.883069 -4.609739
v 0.900313 0.474795 -4.879098
v 0.874021 0.883069 -4.852805
v 0.665308 0.474795 -5.230808
v 0.630955 0.883069 -5.216578
v 0.582786 0.474795 -5.645679
v 0.545602 0.883069 -5.645679
v 0.665308 0.474795 -6.060549
v 0.630955 0.883069 -6.074779
v 0.900313 0.474795 -6.412259
v 0.874021 0.883069 -6.438552
v 1.252024 0.474795 -6.647264
v 1.237794 0.883069 -6.681618
v 1.666894 1.608111 -6.726850
v 1.666894 1.200378 -6.766971
v 2.095994 1.200378 -6.681618
v 2.080640 1.608111 -6.644550
v 2.459767 1.200378 -6.438552
v 2.431397 1.608111 -6.410182
v 2.702833 1.200378 -6.074779
v 2.665766 1.608111 -6.059425
v 2.788186 1.200378 -5.645679
v 2.748065 1.608111 -5.645679
v 2.702833 1.200378 -5.216578
v 2.665766 1.608111 -5.231932
v 2.459767 1.200378 -4.852805
v 2.431397 1.608111 -4.881175
v 2.095994 1.200378 -4.609739
v 2.080640 1.608111 -4.646807
v 1.666894 1.200378 -4.524386
v 1.666894 1.608111 -4.564507
v 1.237794 1.200378 -4.609739
v 1.253148 1.608111 -4.646807
v 0.874021 1.200378 -4.852805
v 0.902390 1.608111 -4.881175
v 0.630955 1.200378 -5.216578
v 0.668022 1.608111 -5.231932
v 0.545602 1.200378 -5.645679
v 0.585723 1.608111 -5.645679
v 0.630955 1.200378 -6.074779
v 0.668022 1.608111 -6.059425
v 0.874021 1.200378 -6.438552
v 0.902390 1.608111 -6.410182
v 1.237794 1.200378 -6.681618
v 1.253148 1.608111 -6.644550
v 1.206549 0.474795 -6.757050
v 1.190760 0.883069 -6.795168
v 1.666894 0.883069 -6.889877
v 1.666894 0.474795 -6.848618
v 0.816287 0.474795 -6.496285
v 0.787112 0.883069 -6.525460
v 0.555523 0.474795 -6.106024
v 0.517405 0.883069 -6.121813
v 0.463954 0.474795 -5.645679
v 0.422695 0.883069 -5.645679
v 0.555523 0.474795 -5.185333
v 0.517405 0.883069 -5.169544
v 0.816287 0.474795 -4.795072
v 0.787112 0.883069 -4.765897
v 1.206549 0.474795 -4.534307
v 1.190760 0.883069 -4.496189
v 1.666894 0.474795 -4.442739
v 1.666894 0.883069 -4.401480
v 2.127239 0.474795 -4.534307
v 2.143028 0.883069 -4.496189
v 2.517501 0.474795 -4.795072
v 2.546675 0.883069 -4.765897
v 2.778265 0.474795 -5.185333
v 2.816383 0.883069 -5.169544
v 2.869833 0.474795 -5.645679
v 2.911093 0.883069 -5.645679
v 2.778265 0.474795 -6.106024
v 2.816383 0.883069 -6.121813
v 2.517501 0.474795 -6.496285
v 2.546675 0.883069 -6.525460
v 2.127239 0.474795 -6.757050
v 2.143028 0.883069 -6.795168
v 1.190760 1.200378 -6.795168
v 1.207796 1.608111 -6.754038
v 1.666894 1.608111 -6.845358
v 1.666894 1.200378 -6.889877
v 0.787112 1.200378 -6.525460
v 0.818592 1.608111 -6.493980
v 0.517405 1.200378 -6.121813
v 0.558535 1.608111 -6.104776
v 0.422695 1.200378 -5.645679
v 0.467214 1.608111 -5.645679
v 0.517405 1.200378 -5.169544
v 0.558535 1.608111 -5.186581
v 0.787112 1.200378 -4.765897
v 0.818592 1.608111 -4.797377
v 1.190760 1.200378 -4.496189
v 1.207796 1.608111 -4.537319
v 1.666894 1.200378 -4.401480
v 1.666894 1.608111 -4.445999
v 2.143028 1.200378 -4.496189
v 2.125992 1.608111 -4.537319
v 2.546675 1.200378 -4.765897
v 2.515196 1.608111 -4.797377
v 2.816383 1.200378 -5.169544
v 2.775254 1.608111 -5.186581
v 2.911093 1.200378 -5.645679
v 2.866574 1.608111 -5.645679
v 2.816383 1.200378 -6.121813
v 2.775254 1.608111 -6.104776
v 2.546675 1.200378 -6.525460
v 2.515196 1.608111 -6.493980
v 2.143028 1.200378 -6.795168
v 2.125992 1.608111 -6.754038
v 1.978288 2.016723 -6.397450
v 1.666894 2.016723 -6.459391
v 1.355499 2.016723 -6.397450
v 1.091513 2.016723 -6.221060
v 0.915122 2.016723 -5.957073
v 0.853182 2.016723 -5.645679
v 0.915122 2.016723 -5.334284
v 1.091513 2.016723 -5.070297
v 1.355499 2.016723 -4.893906
v 1.666894 2.016723 -4.831966
v 1.978288 2.016723 -4.893906
v 2.242275 2.016723 -5.070297
v 2.418666 2.016723 -5.334284
v 2.480607 2.016723 -5.645679
v 2.418666 2.016723 -5.957073
v 2.242275 2.016723 -6.221060
v 1.666894 0.016723 -6.459391
v 1.978288 0.016723 -6.397450
v 2.242275 0.016723 -6.221060
v 2.418666 0.016723 -5.957073
v 2.480607 0.016723 -5.645679
v 2.418666 0.016723 -5.334284
v 2.242275 0.016723 -5.070297
v 1.978288 0.016723 -4.893906
v 1.666894 0.016723 -4.831966
v 1.355499 0.016723 -4.893906
v 1.091513 0.016723 -5.070297
v 0.915122 0.016723 -5.334284
v 0.853182 0.016723 -5.645679
v 0.915122 0.016723 -5.957073
v 1.091513 0.016723 -6.221060
v 1.355499 0.016723 -6.397450
v 1.978288 1.867553 -6.397450
v 1.666894 1.867553 -6.459391
v 2.242275 1.867553 -6.221060
v 1.355499 1.867553 -6.397450
v 1.091513 1.867553 -6.221060
v 0.915122 1.867553 -5.957073
v 0.853182 1.867553 -5.645679
v 0.915122 1.867553 -5.334284
v 1.091513 1.867553 -5.070297
v 1.355499 1.867553 -4.893906
v 1.666894 1.867553 -4.831966
v 1.978288 1.867553 -4.893906
v 2.242275 1.867553 -5.070297
v 2.418666 1.867553 -5.334284
v 2.480607 1.867553 -5.645679
v 2.418666 1.867553 -5.957073
v 1.666894 0.165894 -6.459391
v 1.978288 0.165894 -6.397450
v 1.355499 0.165894 -6.397450
v 2.242275 0.165894 -6.221060
v 2.418666 0.165894 -5.957073
v 2.480607 0.165894 -5.645679
v 2.418666 0.165894 -5.334284
v 2.242275 0.165894 -5.070297
v 1.978288 0.165894 -4.893906
v 1.666894 0.165894 -4.831966
v 1.355499 0.165894 -4.893906
v 1.091513 0.165894 -5.070297
v 0.915122 0.165894 -5.334284
v 0.853182 0.165894 -5.645679
v 0.915122 0.165894 -5.957073
v 1.091513 0.165894 -6.221060
vn 0.5453 0.1912 -0.8161
vn 0.8161 0.1912 -0.5453
vn 0.9627 0.1912 -0.1915
vn 0.9627 0.1912 0.1915
vn 0.8161 0.1912 0.5453
vn 0.5453 0.1912 0.8161
vn 0.1915 0.1912 0.9627
vn -0.1915 0.1912 0.9627
vn -0.5453 0.1912 0.8161
vn -0.8161 0.1912 0.5453
vn -0.9627 0.1912 0.1915
vn -0.9627 0.1912 -0.1915
vn -0.8161 0.1912 -0.5453
vn -0.5453 0.1912 -0.8161
vn 0.1951 -0.0000 -0.9808
vn 0.1915 0.1912 -0.9627
vn -0.9808 -0.0000 0.1951
vn -0.1951 -0.0000 -0.9808
vn -0.5556 -0.0000 -0.8315
vn -0.8315 -0.0000 -0.5556
vn -0.9808 -0.0000 -0.1951
vn -0.8315 -0.0000 0.5556
vn -0.5556 -0.0000 0.8315
vn -0.1951 -0.0000 0.9808
vn 0.1951 -0.0000 0.9808
vn 0.5556 -0.0000 0.8315
vn 0.8315 -0.0000 0.5556
vn 0.9808 -0.0000 0.1951
vn 0.9808 -0.0000 -0.1951
vn 0.8315 -0.0000 -0.5556
vn 0.5556 -0.0000 -0.8315
vn 0.5468 -0.1772 -0.8183
vn -0.1915 0.1912 -0.9627
vn -0.5468 -0.1772 -0.8183
vn -0.8183 -0.1772 -0.5468
vn -0.9653 -0.1772 -0.1920
vn -0.9653 -0.1772 0.1920
vn -0.8183 -0.1772 0.5468
vn -0.5468 -0.1772 0.8183
vn -0.1920 -0.1772 0.9653
vn 0.1920 -0.1772 0.9653
vn 0.5468 -0.1772 0.8183
vn 0.8183 -0.1772 0.5468
vn 0.9653 -0.1772 0.1920
vn 0.9653 -0.1772 -0.1920
vn 0.8183 -0.1772 -0.5468
vn -0.1920 -0.1772 -0.9653
vn -0.0000 -1.0000 -0.0000
vn -0.0000 1.0000 -0.0000
vn 0.1920 -0.1772 -0.9653
vn -0.1941 -0.0986 -0.9760
vn -0.5529 -0.0986 -0.8274
vn -0.8274 -0.0986 -0.5529
vn -0.9760 -0.0986 -0.1941
vn -0.9760 -0.0986 0.1941
vn -0.8274 -0.0986 0.5529
vn -0.5529 -0.0986 0.8274
vn -0.1941 -0.0986 0.9760
vn 0.1941 -0.0986 0.9760
vn 0.5529 -0.0986 0.8274
vn 0.8274 -0.0986 0.5529
vn 0.9760 -0.0986 0.1941
vn 0.9760 -0.0986 -0.1941
vn 0.8274 -0.0986 -0.5529
vn 0.5529 -0.0986 -0.8274
vn 0.1941 -0.0986 -0.9760
vn -0.1940 0.1065 -0.9752
vn -0.5524 0.1065 -0.8267
vn -0.8267 0.1065 -0.5524
vn -0.9752 0.1065 -0.1940
vn -0.9752 0.1065 0.1940
vn -0.8267 0.1065 0.5524
vn -0.5524 0.1065 0.8267
vn -0.1940 0.1065 0.9752
vn 0.1940 0.1065 0.9752
vn 0.5524 0.1065 0.8267
vn 0.8267 0.1065 0.5524
vn 0.9752 0.1065 0.1940
vn 0.9752 0.1065 -0.1940
vn 0.8267 0.1065 -0.5524
vn 0.5524 0.1065 -0.8267
vn 0.1940 0.1065 -0.9752
vt 0.937500 0.891252
vt 0.937500 1.000000
vt 0.875000 1.000000
vt 0.875000 0.891252
vt 0.875000 0.891252
vt 0.812500 1.000000
vt 0.812500 0.891252
vt 0.750000 1.000000
vt 0.750000 0.891252
vt 0.687500 1.000000
vt 0.687500 0.891252
vt 0.687500 0.891252
vt 0.625000 1.000000
vt 0.625000 0.891252
vt 0.625000 0.891252
vt 0.562500 1.000000
vt 0.562500 0.891252
vt 0.500000 1.000000
vt 0.500000 0.891252
vt 0.437500 1.000000
vt 0.437500 0.891252
vt 0.437500 0.891252
vt 0.375000 1.000000
vt 0.375000 0.891252
vt 0.375000 0.891252
vt 0.312500 1.000000
vt 0.312500 0.891252
vt 0.250000 1.000000
vt 0.250000 0.891252
vt 0.187500 1.000000
vt 0.187500 0.891252
vt 0.187500 0.891252
vt 0.125000 1.000000
vt 0.125000 0.891252
vt 0.125000 0.891252
vt 0.062500 1.000000
vt 0.062500 0.891252
vt 0.750000 0.054709
vt 0.675265 0.069575
vt 1.000000 0.891252
vt 1.000000 1.000000
vt 0.937500 0.891252
vt 0.445291 0.250000
vt 0.430425 0.324735
vt 0.062500 0.720877
vt 0.062500 0.791623
vt 0.000000 0.791623
vt 0.000000 0.720877
vt 0.125000 0.720877
vt 0.125000 0.791623
vt 0.062500 0.791623
vt 0.187500 0.720877
vt 0.187500 0.791623
vt 0.125000 0.791623
vt 0.250000 0.720877
vt 0.250000 0.791623
vt 0.187500 0.791623
vt 0.187500 0.720877
vt 0.312500 0.720877
vt 0.312500 0.791623
vt 0.250000 0.791623
vt 0.375000 0.720877
vt 0.375000 0.791623
vt 0.312500 0.791623
vt 0.437500 0.720877
vt 0.437500 0.791623
vt 0.375000 0.791623
vt 0.375000 0.720877
vt 0.500000 0.720877
vt 0.500000 0.791623
vt 0.437500 0.791623
vt 0.437500 0.720877
vt 0.562500 0.720877
vt 0.562500 0.791623
vt 0.500000 0.791623
vt 0.625000 0.720877
vt 0.625000 0.791623
vt 0.562500 0.791623
vt 0.687500 0.720877
vt 0.687500 0.791623
vt 0.625000 0.791623
vt 0.625000 0.720877
vt 0.750000 0.720877
vt 0.750000 0.791623
vt 0.687500 0.791623
vt 0.812500 0.720877
vt 0.812500 0.791623
vt 0.750000 0.791623
vt 0.750000 0.720877
vt 0.875000 0.720877
vt 0.875000 0.791623
vt 0.812500 0.791623
vt 0.812500 0.720877
vt 0.937500 0.720877
vt 0.937500 0.791623
vt 0.875000 0.791623
vt 0.875000 0.720877
vt 1.000000 0.720877
vt 1.000000 0.791623
vt 0.937500 0.791623
vt 0.937500 0.500000
vt 0.937500 0.621352
vt 0.875000 0.621352
vt 0.875000 0.500000
vt 0.000000 1.000000
vt 0.000000 0.891252
vt 0.125000 0.500000
vt 0.125000 0.621352
vt 0.062500 0.621352
vt 0.062500 0.500000
vt 0.187500 0.500000
vt 0.187500 0.621352
vt 0.125000 0.621352
vt 0.250000 0.500000
vt 0.250000 0.621352
vt 0.187500 0.621352
vt 0.312500 0.500000
vt 0.312500 0.621352
vt 0.375000 0.500000
vt 0.375000 0.621352
vt 0.437500 0.500000
vt 0.437500 0.621352
vt 0.375000 0.621352
vt 0.500000 0.500000
vt 0.500000 0.621352
vt 0.437500 0.621352
vt 0.562500 0.500000
vt 0.562500 0.621352
vt 0.625000 0.500000
vt 0.625000 0.621352
vt 0.687500 0.500000
vt 0.687500 0.621352
vt 0.625000 0.621352
vt 0.750000 0.500000
vt 0.750000 0.621352
vt 0.687500 0.621352
vt 0.812500 0.500000
vt 0.812500 0.621352
vt 0.875000 0.621352
vt 0.000000 0.621352
vt 0.000000 0.500000
vt 1.000000 0.500000
vt 1.000000 0.621352
vt 0.937500 0.621352
vt 0.341844 0.471731
vt 0.250000 0.490000
vt 0.250000 0.445291
vt 0.324735 0.430425
vt 0.158156 0.471731
vt 0.175265 0.430425
vt 0.080294 0.419706
vt 0.111908 0.388092
vt 0.028269 0.341844
vt 0.069575 0.324735
vt 0.010000 0.250000
vt 0.054709 0.250000
vt 0.028269 0.158156
vt 0.069575 0.175265
vt 0.080294 0.080294
vt 0.111908 0.111908
vt 0.158156 0.028269
vt 0.175265 0.069575
vt 0.250000 0.010000
vt 0.250000 0.054709
vt 0.341844 0.028269
vt 0.324735 0.069575
vt 0.419706 0.080294
vt 0.388092 0.111908
vt 0.471731 0.158156
vt 0.430425 0.175265
vt 0.490000 0.250000
vt 0.471731 0.341844
vt 0.419706 0.419706
vt 0.388092 0.388092
vt 0.750000 0.490000
vt 0.841844 0.471731
vt 0.824735 0.430425
vt 0.750000 0.445291
vt 0.919706 0.419706
vt 0.888092 0.388092
vt 0.971731 0.341844
vt 0.930425 0.324735
vt 0.990000 0.250000
vt 0.945291 0.250000
vt 0.971731 0.158156
vt 0.930425 0.175265
vt 0.919706 0.080294
vt 0.888092 0.111908
vt 0.841844 0.028269
vt 0.824735 0.069575
vt 0.750000 0.010000
vt 0.658156 0.028269
vt 0.580294 0.080294
vt 0.611908 0.111908
vt 0.528269 0.158156
vt 0.569575 0.175265
vt 0.510000 0.250000
vt 0.554709 0.250000
vt 0.528269 0.341844
vt 0.569575 0.324735
vt 0.580294 0.419706
vt 0.611908 0.388092
vt 0.658156 0.471731
vt 0.675265 0.430425
s 0
usemtl Wood.005
f 84/35/11 20/36/11 22/37/11 86/38/11
f 86/39/12 22/37/12 24/40/12 88/41/12
f 88/41/13 24/40/13 26/42/13 90/43/13
f 90/43/14 26/42/14 28/44/14 92/45/14
f 92/46/15 28/44/15 30/47/15 94/48/15
f 94/49/16 30/47/16 32/50/16 96/51/16
f 96/51/17 32/50/17 34/52/17 98/53/17
f 98/53/18 34/52/18 36/54/18 100/55/18
f 100/56/19 36/54/19 38/57/19 102/58/19
f 102/59/20 38/57/20 40/60/20 104/61/20
f 104/61/21 40/60/21 42/62/21 106/63/21
f 106/63/22 42/62/22 44/64/22 108/65/22
f 108/66/23 44/64/23 46/67/23 110/68/23
f 110/69/24 46/67/24 48/70/24 112/71/24
f 201/72/25 202/73/25 235/73/25 234/72/25
f 81/74/26 18/75/26 20/36/26 84/76/26
f 190/77/27 191/78/27 224/78/27 223/77/27
f 80/79/28 111/80/28 82/81/28 49/82/28
f 78/83/29 109/84/29 111/85/29 80/79/29
f 76/86/30 107/87/30 109/88/30 78/83/30
f 74/89/31 105/90/31 107/91/31 76/92/31
f 72/93/27 103/94/27 105/95/27 74/89/27
f 70/96/32 101/97/32 103/98/32 72/93/32
f 68/99/33 99/100/33 101/101/33 70/102/33
f 66/103/34 97/104/34 99/105/34 68/106/34
f 64/107/35 95/108/35 97/109/35 66/103/35
f 62/110/36 93/111/36 95/112/36 64/107/36
f 60/113/37 91/114/37 93/115/37 62/116/37
f 58/117/38 89/118/38 91/119/38 60/113/38
f 56/120/39 87/121/39 89/122/39 58/123/39
f 54/124/40 85/125/40 87/126/40 56/127/40
f 52/128/41 83/129/41 85/130/41 54/131/41
f 49/132/25 82/133/25 83/134/25 52/128/25
f 19/135/42 51/136/42 53/137/42 21/138/42
f 112/71/43 48/70/43 18/139/43 81/140/43
f 45/141/44 77/142/44 79/143/44 47/144/44
f 43/145/45 75/146/45 77/147/45 45/141/45
f 41/148/46 73/149/46 75/150/46 43/145/46
f 39/151/47 71/152/47 73/149/47 41/148/47
f 37/153/48 69/154/48 71/152/48 39/151/48
f 35/155/49 67/156/49 69/157/49 37/153/49
f 33/158/50 65/159/50 67/160/50 35/155/50
f 31/161/51 63/162/51 65/159/51 33/158/51
f 29/163/52 61/164/52 63/162/52 31/161/52
f 27/165/53 59/166/53 61/167/53 29/163/53
f 25/168/54 57/169/54 59/170/54 27/165/54
f 23/171/55 55/172/55 57/169/55 25/168/55
f 21/138/56 53/173/56 55/172/56 23/171/56
f 47/144/57 79/143/57 50/174/57 17/175/57
f 17/176/60 50/177/60 51/178/60 19/135/60
f 20/179/59 18/180/59 178/181/59 177/182/59
f 18/180/59 48/183/59 179/184/59 178/181/59
f 48/183/59 46/185/59 180/186/59 179/184/59
f 46/185/59 44/187/59 181/188/59 180/186/59
f 44/187/59 42/189/59 182/190/59 181/188/59
f 42/189/59 40/191/59 183/192/59 182/190/59
f 40/191/59 38/193/59 184/194/59 183/192/59
f 38/193/59 36/195/59 185/196/59 184/194/59
f 36/195/59 34/197/59 186/198/59 185/196/59
f 34/197/59 32/199/59 187/200/59 186/198/59
f 32/199/59 30/201/59 188/202/59 187/200/59
f 30/201/59 28/203/59 189/204/59 188/202/59
f 28/203/59 26/205/59 190/77/59 189/204/59
f 26/205/59 24/206/59 191/78/59 190/77/59
f 24/206/59 22/207/59 192/208/59 191/78/59
f 22/207/59 20/179/59 177/182/59 192/208/59
f 17/209/58 19/210/58 194/211/58 193/212/58
f 19/210/58 21/213/58 195/214/58 194/211/58
f 21/213/58 23/215/58 196/216/58 195/214/58
f 23/215/58 25/217/58 197/218/58 196/216/58
f 25/217/58 27/219/58 198/220/58 197/218/58
f 27/219/58 29/221/58 199/222/58 198/220/58
f 29/221/58 31/223/58 200/224/58 199/222/58
f 31/223/58 33/225/58 201/72/58 200/224/58
f 33/225/58 35/226/58 202/73/58 201/72/58
f 35/226/58 37/227/58 203/228/58 202/73/58
f 37/227/58 39/229/58 204/230/58 203/228/58
f 39/229/58 41/231/58 205/232/58 204/230/58
f 41/231/58 43/233/58 206/234/58 205/232/58
f 43/233/58 45/235/58 207/236/58 206/234/58
f 45/235/58 47/237/58 208/238/58 207/236/58
f 47/237/58 17/209/58 193/212/58 208/238/58
f 209/182/59 210/181/59 212/184/59 213/186/59 214/188/59 215/190/59 216/192/59 217/194/59 218/196/59 219/198/59 220/200/59 221/202/59 222/204/59 223/77/59 224/78/59 211/208/59
f 225/212/58 226/211/58 228/214/58 229/216/58 230/218/58 231/220/58 232/222/58 233/224/58 234/72/58 235/73/58 236/228/58 237/230/58 238/232/58 239/234/58 240/236/58 227/238/58
f 192/208/33 177/182/33 209/182/33 211/208/33
f 191/78/32 192/208/32 211/208/32 224/78/32
f 202/73/41 203/228/41 236/228/41 235/73/41
f 178/181/35 179/184/35 212/184/35 210/181/35
f 203/228/40 204/230/40 237/230/40 236/228/40
f 179/184/36 180/186/36 213/186/36 212/184/36
f 204/230/39 205/232/39 238/232/39 237/230/39
f 180/186/37 181/188/37 214/188/37 213/186/37
f 205/232/38 206/234/38 239/234/38 238/232/38
f 181/188/38 182/190/38 215/190/38 214/188/38
f 193/212/34 194/211/34 226/211/34 225/212/34
f 206/234/37 207/236/37 240/236/37 239/234/37
f 182/190/39 183/192/39 216/192/39 215/190/39
f 208/238/35 193/212/35 225/212/35 227/238/35
f 207/236/36 208/238/36 227/238/36 240/236/36
f 183/192/40 184/194/40 217/194/40 216/192/40
f 194/211/33 195/214/33 228/214/33 226/211/33
f 184/194/41 185/196/41 218/196/41 217/194/41
f 195/214/32 196/216/32 229/216/32 228/214/32
f 185/196/25 186/198/25 219/198/25 218/196/25
f 196/216/27 197/218/27 230/218/27 229/216/27
f 186/198/28 187/200/28 220/200/28 219/198/28
f 197/218/31 198/220/31 231/220/31 230/218/31
f 187/200/29 188/202/29 221/202/29 220/200/29
f 198/220/30 199/222/30 232/222/30 231/220/30
f 188/202/30 189/204/30 222/204/30 221/202/30
f 199/222/29 200/224/29 233/224/29 232/222/29
f 189/204/31 190/77/31 223/77/31 222/204/31
f 200/224/28 201/72/28 234/72/28 233/224/28
f 177/182/34 178/181/34 210/181/34 209/182/34
usemtl Metal.006
f 101/101/58 99/100/58 159/100/58 157/101/58
f 83/134/58 82/133/58 148/133/58 175/134/58
f 55/172/58 53/173/58 141/173/58 139/172/58
f 100/56/59 102/58/59 158/58/59 160/56/59
f 81/74/59 84/76/59 176/76/59 147/74/59
f 73/149/58 71/152/58 123/152/58 121/149/58
f 54/124/59 56/127/59 140/127/59 142/124/59
f 85/130/58 83/129/58 175/129/58 173/130/58
f 72/93/59 74/89/59 122/89/59 124/93/59
f 103/98/58 101/97/58 157/97/58 155/98/58
f 84/35/59 86/38/59 174/38/59 176/35/59
f 57/169/58 55/172/58 139/172/58 137/169/58
f 102/59/59 104/61/59 156/61/59 158/59/59
f 75/150/58 73/149/58 121/149/58 119/150/58
f 56/120/59 58/123/59 138/123/59 140/120/59
f 87/126/58 85/125/58 173/125/58 171/126/58
f 74/89/59 76/92/59 120/92/59 122/89/59
f 105/95/58 103/94/58 155/94/58 153/95/58
f 86/39/59 88/41/59 172/41/59 174/39/59
f 59/170/58 57/169/58 137/169/58 135/170/58
f 104/61/59 106/63/59 154/63/59 156/61/59
f 77/147/58 75/146/58 119/146/58 117/147/58
f 58/117/59 60/113/59 136/113/59 138/117/59
f 89/122/58 87/121/58 171/121/58 169/122/58
f 76/86/59 78/83/59 118/83/59 120/86/59
f 107/91/58 105/90/58 153/90/58 151/91/58
f 88/41/59 90/43/59 170/43/59 172/41/59
f 61/167/58 59/166/58 135/166/58 133/167/58
f 106/63/59 108/65/59 152/65/59 154/63/59
f 79/143/58 77/142/58 117/142/58 113/143/58
f 60/113/59 62/116/59 134/116/59 136/113/59
f 91/119/58 89/118/58 169/118/58 167/119/58
f 114/79/61 115/82/61 116/174/61 113/143/61
f 118/83/62 114/79/62 113/143/62 117/142/62
f 120/86/63 118/83/63 117/147/63 119/146/63
f 122/89/64 120/92/64 119/150/64 121/149/64
f 124/93/65 122/89/65 121/149/65 123/152/65
f 126/96/66 124/93/66 123/152/66 125/154/66
f 128/99/67 126/102/67 125/157/67 127/156/67
f 130/103/68 128/106/68 127/160/68 129/159/68
f 132/107/69 130/103/69 129/159/69 131/162/69
f 134/110/70 132/107/70 131/162/70 133/164/70
f 136/113/71 134/116/71 133/167/71 135/166/71
f 138/117/72 136/113/72 135/170/72 137/169/72
f 140/120/73 138/123/73 137/169/73 139/172/73
f 142/124/74 140/127/74 139/172/74 141/173/74
f 144/128/75 142/131/75 141/137/75 143/136/75
f 115/132/76 144/128/76 143/178/76 116/177/76
f 146/71/77 147/140/77 148/81/77 145/80/77
f 150/69/78 146/71/78 145/85/78 149/84/78
f 152/66/79 150/68/79 149/88/79 151/87/79
f 154/63/80 152/65/80 151/91/80 153/90/80
f 156/61/81 154/63/81 153/95/81 155/94/81
f 158/59/82 156/61/82 155/98/82 157/97/82
f 160/56/83 158/58/83 157/101/83 159/100/83
f 162/53/84 160/55/84 159/105/84 161/104/84
f 164/51/85 162/53/85 161/109/85 163/108/85
f 166/49/86 164/51/86 163/112/86 165/111/86
f 168/46/87 166/48/87 165/115/87 167/114/87
f 170/43/88 168/45/88 167/119/88 169/118/88
f 172/41/89 170/43/89 169/122/89 171/121/89
f 174/39/90 172/41/90 171/126/90 173/125/90
f 176/35/91 174/38/91 173/130/91 175/129/91
f 147/74/92 176/76/92 175/134/92 148/133/92
f 70/96/59 72/93/59 124/93/59 126/96/59
f 52/128/59 54/131/59 142/131/59 144/128/59
f 71/152/58 69/154/58 125/154/58 123/152/58
f 98/53/59 100/55/59 160/55/59 162/53/59
f 53/137/58 51/136/58 143/136/58 141/137/58
f 99/105/58 97/104/58 161/104/58 159/105/58
f 49/132/59 52/128/59 144/128/59 115/132/59
f 68/99/59 70/102/59 126/102/59 128/99/59
f 51/178/58 50/177/58 116/177/58 143/178/58
f 69/157/58 67/156/58 127/156/58 125/157/58
f 96/51/59 98/53/59 162/53/59 164/51/59
f 97/109/58 95/108/58 163/108/58 161/109/58
f 112/71/59 81/140/59 147/140/59 146/71/59
f 66/103/59 68/106/59 128/106/59 130/103/59
f 67/160/58 65/159/58 129/159/58 127/160/58
f 94/49/59 96/51/59 164/51/59 166/49/59
f 82/81/58 111/80/58 145/80/58 148/81/58
f 95/112/58 93/111/58 165/111/58 163/112/58
f 64/107/59 66/103/59 130/103/59 132/107/59
f 110/69/59 112/71/59 146/71/59 150/69/59
f 65/159/58 63/162/58 131/162/58 129/159/58
f 80/79/59 49/82/59 115/82/59 114/79/59
f 92/46/59 94/48/59 166/48/59 168/46/59
f 111/85/58 109/84/58 149/84/58 145/85/58
f 93/115/58 91/114/58 167/114/58 165/115/58
f 62/110/59 64/107/59 132/107/59 134/110/59
f 50/174/58 79/143/58 113/143/58 116/174/58
f 108/66/59 110/68/59 150/68/59 152/66/59
f 63/162/58 61/164/58 133/164/58 131/162/58
f 90/43/59 92/45/59 168/45/59 170/43/59
f 109/88/58 107/87/58 151/87/58 149/88/58
f 78/83/59 80/79/59 114/79/59 118/83/59
