# Blender 4.3.2
# www.blender.org
mtllib Berry.mtl
o Plane.001
v 0.632435 0.363860 -7.770052
v 0.862075 0.587042 -7.992165
v 0.592417 0.434121 -7.865541
v 0.719001 0.447905 -7.720817
v 0.792136 0.514591 -7.756085
v 0.631650 0.499527 -7.937147
v 0.848027 0.566573 -7.842665
v 0.717460 0.554966 -7.989320
v 0.664158 0.425491 -7.800041
v 0.719835 0.491921 -7.853615
v 0.789923 0.547719 -7.921684
v 0.580615 0.453901 -7.856844
v 0.620633 0.383640 -7.761355
v 0.836225 0.586353 -7.833968
v 0.850273 0.606822 -7.983467
v 0.619847 0.519307 -7.928450
v 0.652356 0.445270 -7.791344
v 0.707199 0.467685 -7.712120
v 0.780333 0.534371 -7.747387
v 0.705658 0.574746 -7.980622
v 0.708032 0.511701 -7.844918
v 0.778121 0.567498 -7.912986
v 0.632435 0.363860 -7.770052
v 0.862075 0.587042 -7.992165
v 0.592417 0.434121 -7.865541
v 0.719001 0.447905 -7.720817
v 0.792136 0.514591 -7.756085
v 0.631650 0.499527 -7.937147
v 0.848027 0.566573 -7.842665
v 0.717460 0.554966 -7.989320
v 0.582477 0.418367 -7.799464
v 0.622612 0.417680 -7.800981
v 0.643428 0.417680 -7.765680
v 0.602449 0.059212 -7.765304
v 0.623264 0.417680 -7.730003
v 0.568409 0.417680 -7.753160
v 0.466030 0.095917 -7.996651
v 0.734592 0.095917 -7.999120
v 0.871011 0.095917 -7.767772
v 0.738868 0.095917 -7.533956
v 0.470305 0.095917 -7.531488
v 0.333887 0.095917 -7.762835
v 0.435179 0.280102 -8.048970
v 0.764477 0.280102 -8.051997
v 0.931747 0.280102 -7.768330
v 0.769719 0.280102 -7.481637
v 0.440421 0.280102 -7.478610
v 0.273151 0.280102 -7.762277
v -0.920240 0.134242 -7.336956
v -0.944020 0.669345 -7.377283
v -0.920240 0.134242 -7.336956
v -0.944020 0.669345 -7.377283
v 0.738249 0.406791 -8.005589
v 0.462255 0.406791 -8.003053
v 0.878442 0.406791 -7.767840
v 0.742643 0.406791 -7.527555
v 0.466649 0.406791 -7.525018
v 0.326455 0.406791 -7.762767
v 0.693625 0.465174 -7.926632
v 0.508322 0.465174 -7.924929
v 0.787752 0.465174 -7.767007
v 0.696575 0.465174 -7.605678
v 0.511272 0.465174 -7.603975
v 0.417146 0.465174 -7.763600
v 0.561362 0.475737 -7.788337
v 0.602125 0.471642 -7.787328
v 0.622318 0.476304 -7.751974
v 0.601748 0.485061 -7.717629
v 0.560985 0.489156 -7.718638
v 0.540792 0.484494 -7.753992
v 0.562893 0.534393 -7.808135
v 0.613256 0.529334 -7.806888
v 0.638205 0.535094 -7.763207
v 0.612791 0.545913 -7.720772
v 0.562427 0.550973 -7.722019
v 0.537478 0.545213 -7.765700
v 0.529956 0.010543 -7.888242
v 0.672670 0.010526 -7.889554
v 0.745163 0.010543 -7.766615
v 0.674942 0.010543 -7.642365
v 0.532228 0.010527 -7.641054
v 0.459734 0.010543 -7.763992
v 0.595879 0.417680 -7.722299
vn 0.3609 -0.8993 -0.2471
vn 0.3087 -0.9294 -0.2024
vn 0.4843 -0.8612 -0.1541
vn 0.6401 -0.5766 -0.5078
vn 0.5834 -0.6779 -0.4474
vn 0.6389 -0.7208 -0.2689
vn 0.4623 -0.8199 -0.3377
vn 0.5585 -0.8023 -0.2107
vn 0.3488 -0.8182 -0.4571
vn 0.2777 -0.8805 -0.3841
vn 0.4199 -0.7330 -0.5352
vn -0.3609 0.8993 0.2471
vn -0.4843 0.8612 0.1541
vn -0.3087 0.9294 0.2024
vn -0.6401 0.5766 0.5078
vn -0.6389 0.7208 0.2689
vn -0.5834 0.6779 0.4474
vn -0.5585 0.8023 0.2107
vn -0.4623 0.8199 0.3377
vn -0.3488 0.8182 0.4571
vn -0.2777 0.8805 0.3841
vn -0.4199 0.7330 0.5352
vn 0.6537 0.0583 0.7545
vn 0.8531 0.3322 0.4023
vn 0.8437 0.3111 0.4374
vn 0.6463 0.0509 0.7614
vn 0.6075 0.5942 -0.5271
vn -0.3239 0.2122 -0.9220
vn -0.3902 0.1654 -0.9057
vn 0.5284 0.5856 -0.6148
vn -0.6691 -0.0740 -0.7395
vn -0.6726 -0.0777 -0.7359
vn -0.5581 -0.5897 0.5838
vn 0.2470 -0.2628 0.9327
vn 0.2787 -0.2423 0.9293
vn -0.6129 -0.5946 0.5205
vn -0.8674 -0.3725 -0.3299
vn -0.8505 -0.3260 -0.4127
vn -0.3980 0.8196 0.4121
vn -0.5716 0.0350 -0.8198
vn -0.4496 0.5471 -0.7061
vn 0.3620 0.6097 -0.7052
vn 0.4285 0.0451 -0.9024
vn 0.8099 0.5845 0.0494
vn 0.9898 0.0388 0.1368
vn 0.4642 0.5447 0.6985
vn 0.5729 0.0217 0.8194
vn -0.3656 0.6063 0.7062
vn -0.4291 0.0278 0.9028
vn -0.8110 0.5815 -0.0638
vn -0.9901 0.0270 -0.1380
vn -0.2780 -0.9593 0.0503
vn -0.8405 -0.5384 -0.0609
vn -0.4853 -0.4935 -0.7218
vn -0.1640 -0.9405 -0.2976
vn -0.1434 -0.9700 0.1965
vn -0.3720 -0.5675 0.7346
vn 0.1592 -0.9385 0.3065
vn 0.4705 -0.4970 0.7291
vn 0.2714 -0.9615 -0.0424
vn 0.8420 -0.5342 0.0753
vn 0.1364 -0.9735 -0.1834
vn 0.3763 -0.5626 -0.7361
vn -0.1529 0.9425 -0.2973
vn 0.1390 0.9722 -0.1886
vn 0.2661 0.9627 -0.0493
vn 0.1548 0.9462 0.2842
vn -0.1288 0.9758 0.1766
vn -0.2639 0.9637 0.0400
vn -0.1989 0.9114 -0.3602
vn 0.1489 0.9536 -0.2617
vn 0.3106 0.9489 0.0555
vn 0.3343 0.8865 0.3200
vn -0.0296 0.8299 0.5571
vn -0.6562 0.7516 0.0669
vn -0.9795 -0.2005 -0.0192
vn -0.6312 -0.2145 -0.7454
vn -0.4830 -0.1016 0.8697
vn -0.4849 0.0590 0.8726
vn -0.9862 -0.0816 -0.1441
vn 0.4416 0.0066 -0.8972
vn 0.9843 0.0535 0.1679
vn 0.4911 -0.0075 0.8710
vn 0.1028 0.9769 -0.1875
vn 0.9604 -0.2294 0.1580
vn 0.5423 -0.0551 0.8384
vn -0.5656 -0.2504 -0.7857
vn 0.4182 -0.3630 -0.8327
vn -0.0030 -1.0000 0.0046
vt 0.419722 0.225875
vt 0.419722 0.302547
vt 0.344416 0.225875
vt 0.419722 0.022318
vt 0.419722 0.077069
vt 0.344416 0.077069
vt 0.419722 0.147821
vt 0.325474 0.147821
vt 0.511735 0.147821
vt 0.494103 0.225875
vt 0.494103 0.077069
vt 0.166910 0.311065
vt 0.268465 0.311065
vt 0.166910 0.407589
vt 0.166910 0.044470
vt 0.268465 0.123177
vt 0.166910 0.123177
vt 0.295398 0.211392
vt 0.166910 0.211392
vt 0.040496 0.211392
vt 0.062435 0.311065
vt 0.062435 0.123177
vt 0.318996 0.211392
vt 0.287666 0.326027
vt 0.166910 0.432508
vt 0.045978 0.328653
vt 0.018404 0.211392
vt 0.166910 0.019684
vt 0.285041 0.111756
vt 0.047729 0.110880
vt -0.000000 0.003287
vt 0.537366 0.508208
vt 0.555415 0.553907
vt 0.471052 0.608676
vt 0.438720 0.565652
vt 0.390186 0.705134
vt 0.334629 0.660933
vt 0.321614 0.916763
vt 0.177224 0.882341
vt 0.977228 0.491617
vt 0.928693 0.606812
vt 0.753909 0.533122
vt 0.762553 0.472326
vt 0.647214 0.528782
vt 0.642226 0.479270
vt 0.603565 0.290261
vt 0.631247 0.400671
vt 0.508007 0.430506
vt 0.454687 0.297223
vt 0.728790 0.288865
vt 0.755544 0.383009
vt 0.831025 0.230862
vt 0.928851 0.327509
vt 0.198293 0.443157
vt 0.266904 0.568728
vt 0.030478 0.693896
vt 0.030478 0.489384
vt 0.339336 0.394430
vt 0.394092 0.491428
vt 0.571602 0.593223
vt 0.502794 0.644014
vt 0.447148 0.732522
vt 0.433830 0.898543
vt 0.851949 0.660278
vt 0.738490 0.581187
vt 0.649407 0.571483
vt 0.619465 0.703012
vt 0.595331 0.730997
vt 0.583871 0.768799
vt 0.592509 0.810059
vt 0.715386 0.717433
vt 0.698796 0.695229
vt 0.661983 0.690279
vt 0.770541 0.736105
vt 0.827463 0.725824
vt 0.851498 0.806892
vt 0.801602 0.808795
vt 0.893815 0.790181
vt 0.930825 0.851115
vt 0.873324 0.877359
vt 0.872320 0.700218
vt 0.679217 0.741413
vt 0.724885 0.732311
vt 0.744141 0.809863
vt 0.685721 0.821482
vt 0.637919 0.759359
vt 0.640549 0.842573
vt 0.747008 0.892737
vt 0.755993 0.946971
vt 0.713517 0.981869
vt 0.663050 0.960069
vt 0.656697 0.905463
vt 0.700013 0.886023
vt 0.809153 0.889395
vt 0.929927 0.759716
vt 0.978818 0.814771
vt 0.729679 0.171322
vt 0.628332 0.111783
vt 0.730567 0.053780
vt 0.831914 0.113322
vt 0.627444 0.229323
vt 0.898797 0.677711
s 1
usemtl Berry
f 4/31/39 1/31/39 23/31/39 26/31/39
f 5/31/39 4/31/39 26/31/39 27/31/39
f 3/31/39 6/31/39 28/31/39 25/31/39
f 1/31/39 3/31/39 25/31/39 23/31/39
f 7/31/39 5/31/39 27/31/39 29/31/39
f 8/31/39 2/31/39 24/31/39 30/31/39
f 6/31/39 8/31/39 30/31/39 28/31/39
f 2/31/39 7/31/39 29/31/39 24/31/39
f 43/32/40 54/33/41 53/34/42 44/35/43
f 44/35/43 53/34/42 55/36/44 45/37/45
f 45/37/45 55/36/44 56/38/46 46/39/47
f 46/40/47 56/41/46 57/42/48 47/43/49
f 47/43/49 57/42/48 58/44/50 48/45/51
f 48/45/51 58/44/50 54/33/41 43/32/40
f 82/46/52 42/47/53 37/48/54 77/49/55
f 81/50/56 41/51/57 42/47/53 82/46/52
f 80/52/58 40/53/59 41/51/57 81/50/56
f 79/54/60 39/55/61 40/56/59 80/57/58
f 78/58/62 38/59/63 39/55/61 79/54/60
f 77/49/55 37/48/54 38/59/63 78/58/62
f 42/47/53 48/45/51 43/32/40 37/48/54
f 41/51/57 47/43/49 48/45/51 42/47/53
f 40/53/59 46/40/47 47/43/49 41/51/57
f 39/55/61 45/37/45 46/39/47 40/56/59
f 38/59/63 44/35/43 45/37/45 39/55/61
f 37/48/54 43/32/40 44/35/43 38/59/63
f 60/60/64 59/61/65 53/34/42 54/33/41
f 59/61/65 61/62/66 55/36/44 53/34/42
f 61/62/66 62/63/67 56/38/46 55/36/44
f 62/64/67 63/65/68 57/42/48 56/41/46
f 63/65/68 64/66/69 58/44/50 57/42/48
f 64/66/69 60/60/64 54/33/41 58/44/50
f 31/67/70 32/68/71 59/61/65 60/60/64
f 32/68/71 33/69/72 61/62/66 59/61/65
f 33/69/72 35/70/73 62/63/67 61/62/66
f 35/71/73 83/72/74 63/65/68 62/64/67
f 63/65/68 83/72/74 36/73/75 64/66/69
f 36/73/75 31/67/70 60/60/64 64/66/69
f 34/97/89 77/98/55 78/99/62
f 34/97/89 78/99/62 79/100/60
f 34/97/89 79/100/60 80/52/58
f 34/97/89 80/52/58 81/50/56
f 34/97/89 81/50/56 82/101/52
f 34/97/89 82/101/52 77/98/55
usemtl Stem
f 31/74/70 36/75/75 70/76/76 65/77/77
f 70/76/76 69/78/78 75/79/79 76/80/80
f 36/75/75 83/81/74 69/78/78 70/76/76
f 33/82/72 32/83/71 66/84/81 67/85/82
f 35/86/73 33/82/72 67/85/82 68/87/83
f 32/83/71 31/74/70 65/77/77 66/84/81
f 72/88/84 71/89/84 76/90/84 75/91/84 74/92/84 73/93/84
f 68/87/83 67/85/82 73/93/85 74/92/86
f 66/84/81 65/77/77 71/94/87 72/88/88
f 65/77/77 70/76/76 76/80/80 71/94/87
f 69/78/78 68/95/83 74/96/86 75/79/79
f 67/85/82 66/84/81 72/88/88 73/93/85
f 69/78/78 83/81/74 35/102/73 68/95/83
usemtl Leaf
f 11/1/1 2/2/2 7/3/3
f 1/4/4 9/5/5 4/6/6
f 9/5/5 10/7/7 5/8/8 4/6/6
f 10/7/7 11/1/1 7/3/3 5/8/8
f 6/9/9 8/10/10 11/1/1 10/7/7
f 3/11/11 6/9/9 10/7/7 9/5/5
f 1/4/4 3/11/11 9/5/5
f 8/10/10 2/2/2 11/1/1
f 22/12/12 14/13/13 15/14/14
f 13/15/15 18/16/16 17/17/17
f 17/17/17 18/16/16 19/18/18 21/19/19
f 21/19/19 19/18/18 14/13/13 22/12/12
f 16/20/20 21/19/19 22/12/12 20/21/21
f 12/22/22 17/17/17 21/19/19 16/20/20
f 13/15/15 17/17/17 12/22/22
f 20/21/21 22/12/12 15/14/14
f 5/23/23 7/24/24 14/13/25 19/18/26
f 2/25/27 8/26/28 20/21/29 15/14/30
f 8/26/28 6/27/31 16/20/32 20/21/29
f 7/24/24 2/25/27 15/14/30 14/13/25
f 1/28/33 4/29/34 18/16/35 13/15/36
f 4/29/34 5/23/23 19/18/26 18/16/35
f 6/27/31 3/30/37 12/22/38 16/20/32
f 3/30/37 1/28/33 13/15/36 12/22/38
