# Blender 4.3.2
# www.blender.org
mtllib wood_plank_pile.mtl
o Cube.022
v 14.933384 0.010827 -10.658531
v 17.931761 0.010827 -10.685825
v 14.939768 0.010827 -9.957233
v 17.995350 0.028417 -10.335727
v 17.995350 0.243265 -10.335727
v 14.838970 0.049935 -10.306993
v 14.838970 0.243265 -10.306993
v 16.432928 0.010827 -10.633125
v 16.438601 0.010827 -10.009933
v 16.435764 0.199776 -10.321529
v 16.435764 0.010827 -10.321529
v 17.952209 0.243265 -10.496651
v 17.931761 0.180232 -10.685825
v 17.123842 0.243265 -10.657418
v 14.913088 0.243265 -10.049811
v 14.939768 0.140682 -9.957233
v 15.141723 0.243265 -9.969368
v 16.585779 0.199776 -10.007440
v 16.438286 0.199776 -10.044562
v 16.291239 0.199776 -10.005324
v 16.438601 0.146622 -10.009933
v 14.919005 0.243265 -10.604997
v 14.933384 0.224360 -10.658531
v 16.432928 0.180871 -10.633125
v 16.433416 0.199776 -10.579372
v 16.609694 0.210902 -10.639340
v 17.951870 0.012646 -10.077617
v 17.783369 0.010827 -9.987150
v 17.783369 0.238288 -9.987150
v 17.951870 0.243265 -10.077617
v 17.529699 0.043466 -10.664692
v 17.529699 0.270858 -10.664692
v 14.719750 0.043466 -10.723689
v 17.666918 0.043466 -11.348065
v 14.734153 0.043466 -11.409640
v 14.734153 0.270858 -11.409640
v 14.672883 0.043466 -10.896236
v 17.537630 0.270858 -10.836089
v 17.636719 0.043466 -10.834009
v 17.740982 0.043466 -10.661580
v 17.747499 0.043466 -10.845612
v 17.679382 0.270858 -11.302175
v 17.666918 0.212815 -11.348065
v 17.471457 0.270858 -11.352169
v 17.740982 0.196537 -10.661580
v 17.641096 0.270858 -10.663052
v 17.647188 0.270858 -10.835105
v 17.747499 0.196537 -10.845612
v 14.844435 0.270858 -10.721071
v 14.719750 0.216573 -10.723689
v 14.672883 0.216573 -10.896236
v 14.797567 0.270858 -10.893619
v 14.665921 0.226217 -10.971653
v 14.630283 0.043466 -11.053074
v 14.633062 0.043466 -11.090995
v 14.633062 0.270858 -11.090995
v 14.631227 0.265028 -11.056099
v 17.754543 0.043466 -11.025457
v 17.747574 0.043466 -10.985142
v 17.735165 0.270858 -10.983899
v 17.754543 0.270858 -11.025457
v 15.562779 0.074137 -11.340418
v 15.557136 0.228969 -11.071593
v 15.557136 0.032248 -11.071593
v 15.562753 0.228969 -11.340419
v 15.556667 0.228969 -11.071604
v 15.674344 0.213751 -11.058084
v 15.666741 0.216636 -10.731244
v 15.670731 0.216636 -10.902723
v 15.666741 0.074597 -10.731244
v 15.670338 0.074597 -10.902732
v 15.673585 0.074597 -11.057358
v 18.124641 0.455323 -10.098011
v 15.295054 0.217113 -10.835046
v 15.295054 0.435787 -10.835046
v 18.116459 0.217113 -10.793645
v 18.116459 0.435787 -10.793645
v 18.117472 0.217113 -10.675069
v 15.296629 0.217113 -10.650943
v 15.296629 0.435787 -10.650943
v 18.117472 0.435787 -10.675069
v 16.705879 0.217113 -10.800051
v 16.707102 0.217113 -10.656970
v 16.707102 0.435787 -10.656970
v 16.711496 0.236649 -10.641303
v 16.716028 0.236649 -10.111423
v 16.716028 0.455323 -10.111423
v 15.378730 0.236649 -10.076860
v 15.303168 0.236649 -10.147384
v 15.303168 0.414409 -10.147384
v 15.302503 0.455323 -10.225226
v 15.459240 0.455323 -10.078941
v 15.378730 0.414409 -10.076860
v 16.756680 0.435787 -10.798197
v 16.706177 0.435787 -10.765245
v 16.556910 0.435787 -10.804542
v 16.705879 0.378460 -10.800051
v 18.124117 0.236649 -10.159247
v 18.124641 0.272945 -10.098011
v 18.015089 0.236649 -10.100069
v 18.026182 0.236649 -10.656864
v 18.120226 0.236649 -10.614168
v 18.120226 0.455323 -10.614168
v 18.026182 0.455323 -10.656864
v 15.299363 0.236649 -10.592317
v 15.510519 0.236649 -10.635393
v 15.299363 0.455323 -10.592317
v 15.510519 0.438924 -10.635393
v 16.711496 0.438924 -10.641303
v 16.711855 0.455323 -10.599268
v 16.923006 0.455323 -10.643806
v 15.302285 0.451777 -11.409632
v 18.122923 0.526331 -10.606528
v 18.122902 0.728413 -10.690083
v 15.302210 0.497456 -10.675715
v 15.302191 0.699538 -10.759270
v 15.302608 0.452148 -10.785298
v 18.123539 0.455985 -10.776668
v 18.123520 0.658067 -10.860222
v 15.302588 0.654230 -10.868853
v 16.712614 0.506432 -10.654332
v 16.713093 0.451760 -10.786561
v 16.713074 0.653842 -10.870114
v 16.708883 0.463808 -10.808551
v 16.710657 0.261339 -11.298241
v 16.710638 0.463421 -11.381794
v 18.048271 0.254323 -11.315518
v 18.122990 0.281616 -11.249523
v 18.122974 0.445888 -11.317444
v 18.122709 0.513442 -11.261138
v 17.967724 0.456827 -11.398031
v 18.048256 0.418594 -11.383439
v 16.661819 0.707570 -10.740157
v 16.712711 0.695214 -10.770052
v 16.861500 0.710919 -10.732103
v 16.712601 0.655537 -10.715982
v 15.302099 0.273094 -11.269485
v 15.302301 0.283237 -11.339946
v 15.411823 0.250989 -11.322974
v 15.394106 0.463669 -10.808584
v 15.300576 0.446921 -10.849069
v 15.300557 0.649003 -10.932623
v 15.394086 0.665751 -10.892138
v 18.121500 0.451627 -10.838336
v 17.909845 0.467108 -10.800846
v 18.121481 0.653709 -10.921890
v 17.909828 0.654035 -10.878134
v 16.708866 0.650735 -10.885839
v 16.709005 0.649828 -10.930951
v 16.497339 0.665868 -10.892110
v 17.952284 0.445602 -9.922207
v 17.952284 0.672994 -9.922207
v 15.142335 0.445602 -9.981203
v 18.089500 0.445602 -10.605579
v 15.156736 0.445602 -10.667154
v 15.156736 0.672994 -10.667154
v 15.095468 0.445602 -10.153751
v 17.960213 0.672994 -10.093604
v 18.059303 0.445602 -10.091523
v 18.163567 0.445602 -9.919094
v 18.170082 0.445602 -10.103126
v 18.101965 0.672994 -10.559689
v 18.089500 0.614951 -10.605579
v 17.894041 0.672994 -10.609683
v 18.163567 0.598673 -9.919094
v 18.063679 0.672994 -9.920566
v 18.069771 0.672994 -10.092620
v 18.170082 0.598673 -10.103126
v 15.267018 0.672994 -9.978585
v 15.142335 0.618708 -9.981203
v 15.095468 0.618708 -10.153751
v 15.220151 0.672994 -10.151134
v 15.088505 0.628353 -10.229167
v 15.052867 0.445602 -10.310589
v 15.055647 0.445602 -10.348510
v 15.055647 0.672994 -10.348510
v 15.053812 0.667164 -10.313613
v 18.177128 0.445602 -10.282971
v 18.170158 0.445602 -10.242656
v 18.157749 0.672994 -10.241414
v 18.177128 0.672994 -10.282971
v 15.985363 0.476273 -10.597933
v 15.979719 0.631105 -10.329108
v 15.979719 0.434384 -10.329108
v 15.985336 0.631105 -10.597933
v 15.979251 0.631105 -10.329118
v 16.096928 0.615886 -10.315598
v 16.089325 0.618772 -9.988758
v 16.093313 0.618772 -10.160237
v 16.089325 0.476733 -9.988758
v 16.092922 0.476733 -10.160246
v 16.096169 0.476733 -10.314872
v 15.151188 0.677963 -11.410972
v 17.963575 0.677963 -10.371023
v 14.907952 0.677963 -10.753175
v 17.898607 0.695553 -10.021177
v 17.898607 0.910401 -10.021177
v 14.938019 0.717071 -11.115927
v 14.938019 0.910401 -11.115927
v 16.543837 0.677963 -10.854367
v 16.327690 0.677963 -10.269832
v 16.435764 0.866912 -10.562099
v 16.435764 0.677963 -10.562099
v 17.915466 0.910401 -10.186929
v 17.963575 0.847368 -10.371023
v 17.198290 0.910401 -10.631561
v 14.915911 0.910401 -10.849192
v 14.907952 0.807817 -10.753175
v 15.101038 0.910401 -10.692754
v 16.464376 0.866912 -10.215201
v 16.339701 0.866912 -10.302312
v 16.188307 0.866912 -10.317888
v 16.327690 0.813757 -10.269832
v 15.118725 0.910401 -11.366039
v 15.151188 0.891495 -11.410972
v 16.543837 0.848006 -10.854367
v 16.525192 0.866912 -10.803948
v 16.711273 0.878038 -10.797363
v 17.766247 0.679782 -9.795364
v 17.576595 0.677963 -9.770678
v 17.576595 0.905423 -9.770678
v 17.766247 0.910401 -9.795364
vn 0.9823 0.0331 -0.1844
vn -0.0286 0.9996 0.0041
vn -0.9609 -0.0000 0.2769
vn 0.0279 0.9996 0.0039
vn -0.0138 -0.9983 -0.0569
vn -0.0318 0.9985 0.0449
vn -0.0128 -0.9983 0.0571
vn 0.0063 -0.9996 0.0259
vn 0.0286 0.9996 -0.0069
vn 0.9861 -0.0000 0.1661
vn 0.0347 0.0125 0.9993
vn -0.9658 -0.0000 -0.2594
vn 0.0624 0.9448 -0.3216
vn -0.0351 -0.0000 -0.9994
vn -0.2636 0.6076 0.7492
vn -0.2065 0.5332 0.8204
vn 0.2180 0.5336 0.8171
vn 0.0049 -0.9996 -0.0263
vn -0.1695 0.9302 -0.3256
vn 0.0328 0.9440 -0.3284
vn 0.0169 -0.0000 -0.9999
vn 0.4730 -0.0000 0.8810
vn -0.0169 -0.0000 0.9999
vn -0.9650 -0.0000 0.2621
vn -0.9630 0.0368 0.2669
vn 0.6860 0.1695 0.7076
vn -0.0613 -0.0020 -0.9981
vn 0.0305 -0.9995 -0.0039
vn -0.0357 -0.0000 0.9994
vn 0.0832 -0.0000 -0.9965
vn -0.9532 -0.0000 -0.3024
vn 0.9650 -0.0000 -0.2621
vn 0.0320 -0.9995 -0.0040
vn 0.0473 0.9988 0.0086
vn -0.0000 1.0000 -0.0000
vn 0.9994 -0.0000 0.0354
vn -0.0000 -1.0000 -0.0000
vn 0.1899 0.5835 -0.7896
vn 0.0316 0.9990 -0.0327
vn 0.5966 0.8023 0.0211
vn -0.0147 -0.0000 0.9999
vn -0.3972 0.9050 0.1524
vn -0.3988 0.9106 0.1083
vn 0.0637 0.9979 -0.0079
vn -0.0039 -0.9975 -0.0701
vn -0.0210 -0.0000 0.9998
vn -0.0031 -0.0104 -0.9999
vn 0.0145 -0.9975 -0.0685
vn -0.0196 0.9998 0.0091
vn -0.0037 -0.0126 -0.9999
vn -0.0273 0.9992 -0.0276
vn -0.0290 0.9996 -0.0010
vn 0.0080 -0.0098 0.9999
vn -0.0161 -0.9999 -0.0052
vn -0.0152 -0.9999 -0.0057
vn 0.0354 0.0025 -0.9994
vn -0.0095 -0.0023 1.0000
vn 0.0258 -0.0000 0.9997
vn -0.0128 -0.0000 -0.9999
vn -0.0247 0.0018 0.9997
vn -1.0000 -0.0000 0.0086
vn 1.0000 -0.0000 -0.0086
vn -0.0044 -0.0037 1.0000
vn -0.0043 -0.0000 -1.0000
vn -0.4004 0.8097 0.4290
vn -0.6823 -0.0000 0.7311
vn -0.2197 -0.5055 0.8344
vn 0.4865 -0.4553 0.7457
vn 0.2659 -0.8303 0.4898
vn -0.0118 -0.0000 -0.9999
vn 0.4134 -0.0000 -0.9106
vn -0.0763 0.9291 -0.3618
vn -0.1999 -0.0000 -0.9798
vn -0.0018 0.9316 -0.3634
vn -0.0049 -0.0000 -1.0000
vn 0.0001 -0.9241 0.3821
vn 0.0214 -0.3842 -0.9230
vn -0.0139 -0.3821 -0.9240
vn -0.0001 0.9241 -0.3821
vn 0.0009 0.3821 0.9241
vn 0.0366 -0.3801 -0.9242
vn 1.0000 0.0014 0.0031
vn -1.0000 -0.0014 -0.0031
vn 0.0163 -0.3855 -0.9226
vn -0.0076 0.3821 0.9241
vn 0.4054 0.5862 -0.7014
vn 0.6910 -0.2762 -0.6681
vn 0.2296 -0.7849 -0.5755
vn -0.4776 -0.7079 -0.5204
vn -0.2600 -0.9557 -0.1383
vn -0.0001 0.3821 0.9241
vn -0.4242 0.3460 0.8369
vn 0.0719 0.9972 -0.0198
vn 0.1882 0.3753 0.9076
vn -0.0026 0.9998 -0.0201
vn -0.0070 0.3821 0.9241
vn 0.9837 0.0331 0.1767
vn -0.0282 0.9996 -0.0063
vn -0.9966 -0.0000 -0.0826
vn 0.0247 0.9996 0.0136
vn 0.0073 -0.9983 -0.0581
vn -0.0457 0.9985 0.0306
vn -0.0323 -0.9983 0.0488
vn -0.0033 -0.9996 0.0265
vn 0.0291 0.9996 0.0037
vn 0.8627 -0.0000 0.5057
vn -0.3226 0.0125 0.9464
vn -0.8106 -0.0000 -0.5856
vn 0.1726 0.9448 -0.2784
vn 0.3223 -0.0000 -0.9466
vn -0.5126 0.6076 0.6067
vn -0.4845 0.5332 0.6935
vn -0.0866 0.5336 0.8413
vn 0.0139 -0.9996 -0.0228
vn -0.0427 0.9302 -0.3646
vn 0.1474 0.9440 -0.2953
vn 0.3711 -0.0000 -0.9286
vn 0.1291 -0.0000 0.9916
vn -0.3711 -0.0000 0.9286
vt 0.375000 0.250000
vt 0.557204 0.250000
vt 0.625000 0.317498
vt 0.625000 0.375000
vt 0.375000 0.375000
vt 0.625000 0.512902
vt 0.637925 0.500000
vt 0.750000 0.500000
vt 0.750000 0.625000
vt 0.638892 0.625000
vt 0.625000 0.612731
vt 0.375000 0.750000
vt 0.591844 0.750000
vt 0.625000 0.783086
vt 0.625000 0.875000
vt 0.375000 0.875000
vt 0.853436 0.625000
vt 0.855964 0.750000
vt 0.750000 0.750000
vt 0.250000 0.625000
vt 0.375000 0.625000
vt 0.250000 0.750000
vt 0.807502 0.500000
vt 0.875000 0.567379
vt 0.875000 0.610258
vt 0.125000 0.625000
vt 0.125000 0.750000
vt 0.125000 0.500000
vt 0.250000 0.500000
vt 0.625000 0.635459
vt 0.658086 0.750000
vt 0.625000 0.717047
vt 0.625000 0.487075
vt 0.375000 0.487075
vt 0.612656 0.625000
vt 0.625000 0.635459
vt 0.625000 0.980964
vt 0.604666 1.000000
vt 0.375000 1.000000
vt 0.625000 0.182621
vt 0.375000 0.125000
vt 0.599986 0.125000
vt 0.625000 0.139742
vt 0.625000 0.612731
vt 0.362075 0.500000
vt 0.375000 0.512902
vt 0.625000 0.125000
vt 0.625000 0.000764
vt 0.604666 0.000000
vt 0.375000 0.000000
vt 0.375000 0.512902
vt 0.612656 0.625000
vt 0.614397 0.250000
vt 0.614397 0.312500
vt 0.375000 0.312500
vt 0.625000 0.323078
vt 0.625000 0.368219
vt 0.375000 0.369310
vt 0.375000 0.881595
vt 0.625000 0.882142
vt 0.625000 0.937500
vt 0.375000 0.937500
vt 0.616487 0.937500
vt 0.187500 0.500000
vt 0.244310 0.500000
vt 0.243855 0.625738
vt 0.187500 0.628381
vt 0.625000 0.000000
vt 0.625000 0.119079
vt 0.375000 0.119079
vt 0.375000 0.500000
vt 0.625000 0.500000
vt 0.625000 0.626307
vt 0.375000 0.625000
vt 0.375000 0.383145
vt 0.625000 0.383145
vt 0.561186 0.750000
vt 0.625000 0.766622
vt 0.625000 0.866855
vt 0.375000 0.866855
vt 0.125000 0.630921
vt 0.741855 0.500000
vt 0.741855 0.624775
vt 0.812500 0.750000
vt 0.875000 0.750000
vt 0.616487 1.000000
vt 0.187500 0.750000
vt 0.641622 0.750000
vt 0.625000 0.733338
vt 0.756781 0.500000
vt 0.801922 0.500000
vt 0.812500 0.510517
vt 0.812500 0.632677
vt 0.756963 0.626264
vt 0.625000 0.941807
vt 0.625000 1.000000
vt 0.616487 0.000000
vt 0.625000 0.311772
vt 0.625000 0.312500
vt 0.625000 0.250000
vt 0.875000 0.511093
vt 0.875000 0.630921
vt 0.258145 0.625000
vt 0.258145 0.750000
vt 0.625000 0.625000
vt 0.625000 0.624565
vt 0.258145 0.500000
vt 0.316573 0.683427
vt 0.625000 0.627778
vt 0.308814 0.560778
vt 0.741855 0.625000
vt 0.741855 0.750000
vt 0.757142 0.750000
vt 0.625000 0.238907
vt 0.243405 0.750000
vt 0.125000 0.519761
vt 0.145880 0.500000
vt 0.360254 0.500000
vt 0.375000 0.514686
vt 0.375000 0.624820
vt 0.125000 0.624820
vt 0.389746 0.500000
vt 0.625000 0.624820
vt 0.625000 0.731673
vt 0.617888 0.738518
vt 0.375000 0.738518
vt 0.855168 0.624820
vt 0.854415 0.750000
vt 0.674649 0.750000
vt 0.625000 0.731673
vt 0.609475 0.125000
vt 0.625000 0.109689
vt 0.625000 0.140492
vt 0.609475 0.125000
vt 0.625000 0.109689
vt 0.375000 0.761529
vt 0.617888 0.761529
vt 0.625000 0.799649
vt 0.625000 0.979415
vt 0.375000 0.979415
vt 0.375000 0.738518
vt 0.363471 0.750000
vt 0.145585 0.750000
vt 0.125000 0.731255
vt 0.855236 0.500000
vt 0.875000 0.519761
vt 0.875000 0.607918
vt 0.625000 0.738518
vt 0.625000 0.761529
vt 0.625000 0.140492
vt 0.389746 0.500000
vt 0.375000 0.125180
vt 0.606252 0.125180
vt 0.625000 0.142082
vt 0.625000 0.230239
vt 0.375000 0.230239
vt 0.625000 0.269765
vt 0.375000 0.270880
vt 0.375000 0.485254
vt 0.625000 0.125180
vt 0.606252 0.018745
vt 0.375000 0.018745
vt 0.625000 0.000343
s 0
usemtl Wood.011
f 2/1/1 13/2/1 12/3/1 5/4/1 4/5/1
f 29/6/2 30/7/2 5/8/2 10/9/2 19/10/2 18/11/2
f 3/12/3 16/13/3 15/14/3 7/15/3 6/16/3
f 10/9/4 25/17/4 22/18/4 7/19/4
f 11/20/5 9/21/5 3/12/5 6/22/5
f 5/8/6 12/23/6 14/24/6 26/25/6 25/17/6 10/9/6
f 8/26/7 11/20/7 6/22/7 1/27/7
f 2/28/8 4/29/8 11/20/8 8/26/8
f 20/30/9 19/10/9 10/9/9 7/19/9 15/31/9 17/32/9
f 4/5/10 5/4/10 30/33/10 27/34/10
f 9/21/11 21/35/11 20/36/11 17/32/11 16/13/11 3/12/11
f 6/16/12 7/15/12 22/37/12 23/38/12 1/39/12
f 12/23/13 13/2/13 14/40/13
f 8/41/14 24/42/14 26/43/14 14/40/14 13/2/14 2/1/14
f 15/31/15 16/13/15 17/32/15
f 18/44/16 19/10/16 21/35/16
f 19/10/17 20/30/17 21/35/17
f 4/29/18 27/45/18 28/46/18 9/21/18 11/20/18
f 24/42/19 25/47/19 26/43/19
f 22/48/20 25/47/20 24/42/20 23/49/20
f 1/50/21 23/49/21 24/42/21 8/41/21
f 29/6/22 28/51/22 27/34/22 30/33/22
f 28/51/23 29/6/23 18/44/23 21/52/23 9/21/23
usemtl wood2.003
f 33/1/24 50/53/24 51/54/24 37/55/24
f 37/55/25 51/54/25 53/56/25 57/57/25 54/58/25
f 59/59/26 60/60/26 38/61/26 39/62/26
f 39/62/27 38/61/27 47/61/27 48/63/27 41/62/27
f 37/64/28 54/65/28 72/66/28 71/67/28
f 31/50/29 32/68/29 68/69/29 70/70/29
f 35/71/30 36/72/30 65/73/30 62/74/30
f 55/75/31 56/76/31 36/72/31 35/71/31
f 34/12/32 43/77/32 42/78/32 61/79/32 58/80/32
f 33/28/33 37/64/33 71/67/33 70/81/33
f 36/72/34 56/82/34 66/83/34 65/73/34
f 38/84/35 32/85/35 46/85/35 47/84/35
f 41/62/36 48/63/36 45/86/36 40/39/36
f 31/27/37 39/87/37 41/87/37 40/27/37
f 42/88/38 43/77/38 44/89/38
f 57/90/39 53/91/39 52/92/39 69/93/39 67/94/39
f 47/95/40 46/96/40 45/86/40 48/63/40
f 32/68/41 31/50/41 40/50/41 45/97/41 46/68/41
f 51/54/42 52/98/42 53/99/42
f 49/100/43 52/98/43 51/54/43 50/53/43
f 52/92/44 49/101/44 68/102/44 69/93/44
f 64/103/45 62/74/45 34/12/45 58/104/45
f 63/105/46 66/106/46 56/76/46 55/107/46 64/108/46
f 57/57/47 67/109/47 72/110/47 54/58/47
f 61/79/46 63/105/46 64/108/46 58/80/46
f 55/107/48 35/71/48 62/74/48 64/103/48
f 65/73/49 66/83/49 63/111/49 61/112/49 42/88/49 44/89/49
f 62/74/50 65/73/50 44/89/50 43/77/50 34/12/50
f 67/94/51 69/93/51 38/84/51 60/113/51
f 69/93/52 68/102/52 32/85/52 38/84/52
f 70/70/53 68/69/53 49/114/53 50/53/53 33/1/53
f 70/81/54 71/67/54 39/87/54 31/27/54
f 71/67/55 72/66/55 59/115/55 39/87/55
f 72/110/56 67/109/56 60/60/56 59/115/56
usemtl Wood3.003
f 101/116/37 102/117/37 98/118/37 100/119/37 86/120/37 85/121/37
f 100/119/57 99/122/57 73/72/57 87/123/57 86/120/57
f 86/120/58 87/123/58 92/124/58 93/125/58 88/126/58
f 87/123/35 110/127/35 107/128/35 91/129/35 92/130/35
f 83/41/59 84/47/59 81/100/59 78/1/59
f 74/50/60 82/41/60 97/131/60 96/132/60 75/68/60
f 82/41/35 74/50/35 79/50/35 83/41/35
f 77/100/61 76/1/61 78/1/61 81/100/61
f 74/50/62 75/68/62 80/68/62 79/50/62
f 76/1/35 82/41/35 83/41/35 78/1/35
f 82/41/63 76/1/63 77/100/63 94/133/63 97/134/63
f 79/50/64 80/68/64 84/47/64 83/41/64
f 75/68/37 96/135/37 95/47/37 84/47/37 80/68/37
f 89/136/61 90/137/61 91/138/61 107/139/61 105/140/61
f 85/121/37 86/120/37 88/141/37 89/142/37 105/143/37 106/144/37
f 73/72/35 103/145/35 104/146/35 111/147/35 110/127/35 87/123/35
f 92/148/65 91/149/65 90/137/65 93/125/65
f 90/137/66 89/136/66 88/126/66 93/125/66
f 95/47/67 96/135/67 97/131/67
f 95/47/37 94/150/37 77/100/37 81/100/37 84/47/37
f 94/133/68 95/47/68 97/131/68
f 98/118/69 99/151/69 100/119/69
f 85/152/70 109/153/70 111/154/70 104/155/70 101/156/70
f 103/157/71 102/158/71 101/156/71 104/155/71
f 102/158/62 103/157/62 73/72/62 99/151/62 98/159/62
f 109/153/72 110/160/72 111/154/72
f 105/50/73 107/68/73 108/161/73 106/162/73
f 107/163/74 110/160/74 109/153/74 108/161/74
f 106/162/75 108/161/75 109/153/75 85/152/75
usemtl Wood3.004
f 140/116/76 141/117/76 137/118/76 139/119/76 125/120/76 124/121/76
f 139/119/77 138/122/77 112/72/77 126/123/77 125/120/77
f 125/120/78 126/123/78 131/124/78 132/125/78 127/126/78
f 126/123/79 149/127/79 146/128/79 130/129/79 131/130/79
f 122/41/80 123/47/80 120/100/80 117/1/80
f 113/50/81 121/41/81 136/131/81 135/132/81 114/68/81
f 121/41/79 113/50/79 118/50/79 122/41/79
f 116/100/82 115/1/82 117/1/82 120/100/82
f 113/50/83 114/68/83 119/68/83 118/50/83
f 115/1/79 121/41/79 122/41/79 117/1/79
f 121/41/84 115/1/84 116/100/84 133/133/84 136/134/84
f 118/50/85 119/68/85 123/47/85 122/41/85
f 114/68/76 135/135/76 134/47/76 123/47/76 119/68/76
f 128/136/82 129/137/82 130/138/82 146/139/82 144/140/82
f 124/121/76 125/120/76 127/141/76 128/142/76 144/143/76 145/144/76
f 112/72/79 142/145/79 143/146/79 150/147/79 149/127/79 126/123/79
f 131/148/86 130/149/86 129/137/86 132/125/86
f 129/137/87 128/136/87 127/126/87 132/125/87
f 134/47/88 135/135/88 136/131/88
f 134/47/76 133/150/76 116/100/76 120/100/76 123/47/76
f 133/133/89 134/47/89 136/131/89
f 137/118/90 138/151/90 139/119/90
f 124/152/91 148/153/91 150/154/91 143/155/91 140/156/91
f 142/157/92 141/158/92 140/156/92 143/155/92
f 141/158/83 142/157/83 112/72/83 138/151/83 137/159/83
f 148/153/93 149/160/93 150/154/93
f 144/50/94 146/68/94 147/161/94 145/162/94
f 146/163/95 149/160/95 148/153/95 147/161/95
f 145/162/96 147/161/96 148/153/96 124/152/96
usemtl wood2.004
f 153/1/24 170/53/24 171/54/24 157/55/24
f 157/55/25 171/54/25 173/56/25 177/57/25 174/58/25
f 179/59/26 180/60/26 158/61/26 159/62/26
f 159/62/27 158/61/27 167/61/27 168/63/27 161/62/27
f 157/64/28 174/65/28 192/66/28 191/67/28
f 151/50/29 152/68/29 188/69/29 190/70/29
f 155/71/30 156/72/30 185/73/30 182/74/30
f 175/75/31 176/76/31 156/72/31 155/71/31
f 154/12/32 163/77/32 162/78/32 181/79/32 178/80/32
f 153/28/33 157/64/33 191/67/33 190/81/33
f 156/72/34 176/82/34 186/83/34 185/73/34
f 158/84/35 152/85/35 166/85/35 167/84/35
f 161/62/36 168/63/36 165/86/36 160/39/36
f 151/27/37 159/87/37 161/87/37 160/27/37
f 162/88/38 163/77/38 164/89/38
f 177/90/39 173/91/39 172/92/39 189/93/39 187/94/39
f 167/95/40 166/96/40 165/86/40 168/63/40
f 152/68/41 151/50/41 160/50/41 165/97/41 166/68/41
f 171/54/42 172/98/42 173/99/42
f 169/100/43 172/98/43 171/54/43 170/53/43
f 172/92/44 169/101/44 188/102/44 189/93/44
f 184/103/45 182/74/45 154/12/45 178/104/45
f 183/105/46 186/106/46 176/76/46 175/107/46 184/108/46
f 177/57/47 187/109/47 192/110/47 174/58/47
f 181/79/46 183/105/46 184/108/46 178/80/46
f 175/107/48 155/71/48 182/74/48 184/103/48
f 185/73/49 186/83/49 183/111/49 181/112/49 162/88/49 164/89/49
f 182/74/50 185/73/50 164/89/50 163/77/50 154/12/50
f 187/94/51 189/93/51 158/84/51 180/113/51
f 189/93/52 188/102/52 152/85/52 158/84/52
f 190/70/53 188/69/53 169/114/53 170/53/53 153/1/53
f 190/81/54 191/67/54 159/87/54 151/27/54
f 191/67/55 192/66/55 179/115/55 159/87/55
f 192/110/56 187/109/56 180/60/56 179/115/56
usemtl Wood.012
f 194/1/97 205/2/97 204/3/97 197/4/97 196/5/97
f 221/6/98 222/7/98 197/8/98 202/9/98 211/10/98 210/11/98
f 195/12/99 208/13/99 207/14/99 199/15/99 198/16/99
f 202/9/100 217/17/100 214/18/100 199/19/100
f 203/20/101 201/21/101 195/12/101 198/22/101
f 197/8/102 204/23/102 206/24/102 218/25/102 217/17/102 202/9/102
f 200/26/103 203/20/103 198/22/103 193/27/103
f 194/28/104 196/29/104 203/20/104 200/26/104
f 212/30/105 211/10/105 202/9/105 199/19/105 207/31/105 209/32/105
f 196/5/106 197/4/106 222/33/106 219/34/106
f 201/21/107 213/35/107 212/36/107 209/32/107 208/13/107 195/12/107
f 198/16/108 199/15/108 214/37/108 215/38/108 193/39/108
f 204/23/109 205/2/109 206/40/109
f 200/41/110 216/42/110 218/43/110 206/40/110 205/2/110 194/1/110
f 207/31/111 208/13/111 209/32/111
f 210/44/112 211/10/112 213/35/112
f 211/10/113 212/30/113 213/35/113
f 196/29/114 219/45/114 220/46/114 201/21/114 203/20/114
f 216/42/115 217/47/115 218/43/115
f 214/48/116 217/47/116 216/42/116 215/49/116
f 193/50/117 215/49/117 216/42/117 200/41/117
f 221/6/118 220/51/118 219/34/118 222/33/118
f 220/51/119 221/6/119 210/44/119 213/52/119 201/21/119
