# Blender 4.3.2
# www.blender.org
mtllib wood_stand.mtl
o Cube.013
v 14.128788 0.236238 -2.400000
v 14.128788 0.568825 -2.400000
v 14.128788 0.236238 -4.400000
v 14.128788 0.568825 -4.400000
v 17.713371 0.236238 -2.400000
v 17.713371 0.568825 -2.400000
v 17.713371 0.236238 -4.400000
v 17.713371 0.568825 -4.400000
vn -1.0000 -0.0000 -0.0000
vn -0.0000 -0.0000 -1.0000
vn 1.0000 -0.0000 -0.0000
vn -0.0000 -0.0000 1.0000
vn -0.0000 -1.0000 -0.0000
vn -0.0000 1.0000 -0.0000
vt 0.375000 0.000000
vt 0.625000 0.000000
vt 0.625000 0.250000
vt 0.375000 0.250000
vt 0.625000 0.500000
vt 0.375000 0.500000
vt 0.625000 0.750000
vt 0.375000 0.750000
vt 0.625000 1.000000
vt 0.375000 1.000000
vt 0.125000 0.500000
vt 0.125000 0.750000
vt 0.875000 0.500000
vt 0.875000 0.750000
s 0
usemtl Wood
f 1/1/1 2/2/1 4/3/1 3/4/1
f 3/4/2 4/3/2 8/5/2 7/6/2
f 7/6/3 8/5/3 6/7/3 5/8/3
f 5/8/4 6/7/4 2/9/4 1/10/4
f 3/11/5 7/6/5 5/8/5 1/12/5
f 8/5/6 4/13/6 2/14/6 6/7/6
o Cube.014
v 14.363355 0.003651 -4.292362
v 14.363355 0.003651 -4.097215
v 14.363355 1.351395 -4.097215
v 14.586455 0.003651 -4.292362
v 14.586455 1.351395 -4.292362
v 14.586455 0.003651 -4.097215
v 14.586455 1.351395 -4.097215
v 14.440615 1.351395 -4.292362
v 14.363355 1.351395 -4.173657
v 14.363355 1.169453 -4.292362
v 14.363355 0.003651 -2.702459
v 14.363355 0.336237 -2.702459
v 14.363355 0.003651 -2.507312
v 14.363355 0.336237 -2.507312
v 14.586455 0.003651 -2.702459
v 14.586455 0.336237 -2.702459
v 14.586455 0.003651 -2.507312
v 14.586455 0.336237 -2.507312
v 17.306557 0.003651 -2.702459
v 17.306557 0.336237 -2.702459
v 17.306557 0.003651 -2.507312
v 17.306557 0.336237 -2.507312
v 17.529657 0.003651 -2.702459
v 17.529657 0.336237 -2.702459
v 17.529657 0.003651 -2.507312
v 17.529657 0.336237 -2.507312
v 17.306557 0.003651 -4.292362
v 17.306557 1.351395 -4.292362
v 17.306557 0.003651 -4.097215
v 17.306557 1.351395 -4.097215
v 17.529657 0.003651 -4.292362
v 17.529657 1.351395 -4.292362
v 17.529657 0.003651 -4.097215
v 17.529657 1.351395 -4.097215
vn -0.0000 1.0000 -0.0000
vn -0.0000 -0.0000 1.0000
vn 1.0000 -0.0000 -0.0000
vn -1.0000 -0.0000 -0.0000
vn -0.0000 -1.0000 -0.0000
vn -0.7896 0.3353 -0.5139
vn -0.0000 -0.0000 -1.0000
vt 0.625000 0.500000
vt 0.875000 0.500000
vt 0.875000 0.597929
vt 0.788424 0.750000
vt 0.625000 0.750000
vt 0.375000 0.250000
vt 0.625000 0.250000
vt 0.375000 0.500000
vt 0.375000 0.750000
vt 0.375000 0.000000
vt 0.611295 0.000000
vt 0.625000 0.152071
vt 0.125000 0.500000
vt 0.125000 0.750000
vt 0.625000 0.913424
vt 0.611295 1.000000
vt 0.375000 1.000000
vt 0.625000 0.000000
vt 0.625000 1.000000
vt 0.875000 0.750000
s 0
usemtl Wood3.006
f 10/20/8 14/22/8 15/15/8 11/21/8
f 14/22/9 12/23/9 13/19/9 15/15/9
f 9/24/10 10/20/10 11/21/10 17/26/10 18/25/10
f 10/27/11 9/28/11 12/23/11 14/22/11
f 16/29/12 18/25/12 17/17/12
f 12/23/13 9/31/13 18/30/13 16/29/13 13/19/13
f 19/24/10 21/20/10 22/21/10 20/32/10
f 21/20/8 25/22/8 26/15/8 22/21/8
f 25/22/9 23/23/9 24/19/9 26/15/9
f 23/23/13 19/31/13 20/33/13 24/19/13
f 21/27/11 19/28/11 23/23/11 25/22/11
f 26/15/7 24/19/7 20/34/7 22/16/7
f 27/24/10 29/20/10 30/21/10 28/32/10
f 29/20/8 33/22/8 34/15/8 30/21/8
f 33/22/9 31/23/9 32/19/9 34/15/9
f 31/23/13 27/31/13 28/33/13 32/19/13
f 29/27/11 27/28/11 31/23/11 33/22/11
f 34/15/7 32/19/7 28/34/7 30/16/7
f 35/24/10 37/20/10 38/21/10 36/32/10
f 37/20/8 41/22/8 42/15/8 38/21/8
f 41/22/9 39/23/9 40/19/9 42/15/9
f 39/23/13 35/31/13 36/33/13 40/19/13
f 37/27/11 35/28/11 39/23/11 41/22/11
usemtl LIGHT_wood
f 15/15/7 13/19/7 16/18/7 17/17/7 11/16/7
f 42/15/7 40/19/7 36/34/7 38/16/7
