# Blender 4.3.2
# www.blender.org
mtllib wood_plank_1.mtl
o Cube.019
v 18.241419 0.371713 -9.510716
v 17.210957 0.049242 -5.688920
v 17.210957 0.345266 -5.688920
v 17.299664 0.049242 -9.507694
v 17.299664 0.345266 -9.507694
v 17.460190 0.049242 -9.507694
v 17.460190 0.049242 -5.688920
v 17.460190 0.345266 -5.688920
v 17.460190 0.345266 -9.507694
v 17.274662 0.049242 -7.598307
v 17.468359 0.049242 -7.598307
v 17.468359 0.345266 -7.598307
v 17.489618 0.075689 -7.604074
v 18.206953 0.075689 -7.604074
v 18.206953 0.371713 -7.604074
v 18.238258 0.075689 -5.793412
v 18.141918 0.075689 -5.691943
v 18.141918 0.316326 -5.691943
v 18.036537 0.371713 -5.691943
v 18.236374 0.371713 -5.902420
v 18.238258 0.316326 -5.793412
v 17.277760 0.345266 -7.667053
v 17.321781 0.345266 -7.598307
v 17.266859 0.345266 -7.396705
v 17.274662 0.267661 -7.598307
v 18.158518 0.075689 -9.510716
v 18.241419 0.124824 -9.510716
v 18.237364 0.075689 -9.362444
v 17.483774 0.075689 -9.383907
v 17.542660 0.075689 -9.510716
v 17.542660 0.371713 -9.510716
v 17.483774 0.371713 -9.383907
v 17.539581 0.075689 -5.691943
v 17.483715 0.075689 -5.978278
v 17.539581 0.371713 -5.691943
v 17.483715 0.349513 -5.978278
v 17.489618 0.349513 -7.604074
v 17.546524 0.371713 -7.604074
v 17.488678 0.371713 -7.890418
vn -0.0000 -1.0000 -0.0000
vn 0.9998 -0.0023 0.0180
vn 0.9999 -0.0000 -0.0173
vn -0.0000 1.0000 -0.0000
vn -1.0000 -0.0000 0.0043
vn 0.9994 0.0018 0.0333
vn -0.0000 -0.0000 1.0000
vn -0.0000 -0.0000 -1.0000
vn 0.9999 -0.0037 0.0129
vn -1.0000 -0.0000 -0.0043
vn 0.4256 0.8097 0.4041
vn 0.7252 -0.0000 0.6885
vn 0.8325 -0.5055 0.2268
vn 0.7498 -0.4553 -0.4801
vn 0.4921 -0.8303 -0.2617
vn -1.0000 -0.0000 0.0033
vn -0.9070 -0.0000 -0.4212
vn -0.3625 0.9291 0.0732
vn -0.9815 -0.0000 0.1915
vn -0.3634 0.9316 -0.0013
vn -1.0000 -0.0000 -0.0036
vt 0.125000 0.519761
vt 0.145880 0.500000
vt 0.360254 0.500000
vt 0.375000 0.514686
vt 0.375000 0.624820
vt 0.125000 0.624820
vt 0.389746 0.500000
vt 0.625000 0.500000
vt 0.625000 0.624820
vt 0.625000 0.731673
vt 0.617888 0.738518
vt 0.375000 0.738518
vt 0.855168 0.624820
vt 0.854415 0.750000
vt 0.674649 0.750000
vt 0.625000 0.731673
vt 0.375000 0.125000
vt 0.625000 0.125000
vt 0.625000 0.250000
vt 0.375000 0.250000
vt 0.375000 0.000000
vt 0.609475 0.125000
vt 0.625000 0.109689
vt 0.625000 0.000000
vt 0.625000 0.140492
vt 0.609475 0.125000
vt 0.625000 0.109689
vt 0.375000 0.761529
vt 0.617888 0.761529
vt 0.625000 0.799649
vt 0.625000 0.979415
vt 0.375000 0.979415
vt 0.375000 0.738518
vt 0.363471 0.750000
vt 0.145585 0.750000
vt 0.125000 0.731255
vt 0.855236 0.500000
vt 0.875000 0.519761
vt 0.875000 0.607918
vt 0.625000 0.738518
vt 0.625000 0.761529
vt 0.625000 0.140492
vt 0.389746 0.500000
vt 0.375000 0.125180
vt 0.606252 0.125180
vt 0.625000 0.142082
vt 0.625000 0.230239
vt 0.375000 0.230239
vt 0.625000 0.269765
vt 0.375000 0.270880
vt 0.375000 0.485254
vt 0.625000 0.125180
vt 0.606252 0.018745
vt 0.375000 0.018745
vt 0.625000 0.000343
s 0
usemtl Wood3
f 29/1/1 30/2/1 26/3/1 28/4/1 14/5/1 13/6/1
f 28/4/2 27/7/2 1/8/2 15/9/2 14/5/2
f 14/5/3 15/9/3 20/10/3 21/11/3 16/12/3
f 15/9/4 38/13/4 35/14/4 19/15/4 20/16/4
f 11/17/5 12/18/5 9/19/5 6/20/5
f 2/21/6 10/17/6 25/22/6 24/23/6 3/24/6
f 10/17/4 2/21/4 7/21/4 11/17/4
f 5/19/7 4/20/7 6/20/7 9/19/7
f 2/21/8 3/24/8 8/24/8 7/21/8
f 4/20/4 10/17/4 11/17/4 6/20/4
f 10/17/9 4/20/9 5/19/9 22/25/9 25/26/9
f 7/21/10 8/24/10 12/18/10 11/17/10
f 3/24/1 24/27/1 23/18/1 12/18/1 8/24/1
f 17/28/7 18/29/7 19/30/7 35/31/7 33/32/7
f 13/6/1 14/5/1 16/33/1 17/34/1 33/35/1 34/36/1
f 1/8/4 31/37/4 32/38/4 39/39/4 38/13/4 15/9/4
f 20/40/11 19/41/11 18/29/11 21/11/11
f 18/29/12 17/28/12 16/12/12 21/11/12
f 23/18/13 24/27/13 25/22/13
f 23/18/1 22/42/1 5/19/1 9/19/1 12/18/1
f 22/25/14 23/18/14 25/22/14
f 26/3/15 27/43/15 28/4/15
f 13/44/16 37/45/16 39/46/16 32/47/16 29/48/16
f 31/49/17 30/50/17 29/48/17 32/47/17
f 30/50/8 31/49/8 1/8/8 27/43/8 26/51/8
f 37/45/18 38/52/18 39/46/18
f 33/21/19 35/24/19 36/53/19 34/54/19
f 35/55/20 38/52/20 37/45/20 36/53/20
f 34/54/21 36/53/21 37/45/21 13/44/21
