# Blender 4.3.2
# www.blender.org
mtllib wood_plank_2.mtl
o Cube.020
v 15.946071 0.075689 -5.851861
v 15.946071 0.371713 -5.851861
v 15.946071 0.075689 -9.510716
v 16.839252 0.075689 -5.691943
v 16.839252 0.075689 -9.510716
v 16.839252 0.371713 -9.510716
v 16.169367 0.075689 -9.576431
v 16.169367 0.371713 -5.846225
v 16.169367 0.075689 -5.717199
v 15.947794 0.075689 -5.576785
v 16.187494 0.075689 -5.573333
v 16.779865 0.371713 -5.674466
v 16.839252 0.296151 -5.691943
v 16.839252 0.371713 -5.946453
v 15.947794 0.274960 -5.576785
v 15.946980 0.371713 -5.706832
v 16.171080 0.371713 -5.703604
v 16.187494 0.274960 -5.573333
v 15.946071 0.371713 -9.348365
v 15.946071 0.301042 -9.510716
v 16.169367 0.301042 -9.576431
v 16.169367 0.371713 -9.414080
v 16.267334 0.313598 -9.587553
v 16.372332 0.075689 -9.636162
v 16.421762 0.075689 -9.633581
v 16.421762 0.371713 -9.633581
v 16.376295 0.364123 -9.635015
v 16.421762 0.075689 -5.569078
v 16.369101 0.075689 -5.577047
v 16.367144 0.371713 -5.593164
v 16.421762 0.371713 -5.569078
v 16.771801 0.115617 -8.430340
v 16.421762 0.317180 -8.430340
v 16.421762 0.061085 -8.430340
v 16.771801 0.317180 -8.430374
v 16.421762 0.317180 -8.430949
v 16.407383 0.297369 -8.277419
v 15.981782 0.301125 -8.278383
v 16.205076 0.301125 -8.277877
v 15.981782 0.116216 -8.278383
v 16.205076 0.116216 -8.278388
v 16.406416 0.116216 -8.278387
vn -0.2823 -0.0000 -0.9593
vn -0.2870 0.0368 -0.9572
vn -0.6931 0.1695 0.7007
vn 0.9966 -0.0020 -0.0823
vn 0.0045 -0.9995 0.0304
vn -0.9999 -0.0000 -0.0147
vn 0.9981 -0.0000 0.0623
vn 0.2823 -0.0000 -0.9593
vn 0.2823 -0.0000 0.9593
vn 0.0047 -0.9995 0.0319
vn -0.0076 0.9988 0.0475
vn -0.0000 1.0000 -0.0000
vn -0.0144 -0.0000 0.9999
vn -0.0000 -1.0000 -0.0000
vn 0.7934 0.5835 0.1732
vn 0.0334 0.9990 0.0309
vn -0.0086 0.8023 0.5969
vn -1.0000 -0.0000 0.0063
vn -0.1607 0.9050 -0.3939
vn -0.1167 0.9106 -0.3964
vn 0.0093 0.9979 0.0636
vn 0.0700 -0.9975 -0.0054
vn -1.0000 -0.0000 -0.0000
vn 0.9997 -0.0104 -0.0241
vn 0.0688 -0.9975 0.0131
vn -0.0095 0.9998 -0.0194
vn 0.9996 -0.0126 -0.0247
vn 0.0271 0.9992 -0.0279
vn 0.0004 0.9996 -0.0290
vn -0.9995 -0.0098 0.0290
vn 0.0049 -0.9999 -0.0162
vn 0.0054 -0.9999 -0.0153
vn 0.9999 0.0025 0.0144
vt 0.375000 0.250000
vt 0.614397 0.250000
vt 0.614397 0.312500
vt 0.375000 0.312500
vt 0.625000 0.323078
vt 0.625000 0.368219
vt 0.375000 0.369310
vt 0.375000 0.881595
vt 0.625000 0.882142
vt 0.625000 0.937500
vt 0.375000 0.937500
vt 0.616487 0.937500
vt 0.187500 0.500000
vt 0.244310 0.500000
vt 0.243855 0.625738
vt 0.187500 0.628381
vt 0.375000 0.000000
vt 0.625000 0.000000
vt 0.625000 0.119079
vt 0.375000 0.119079
vt 0.375000 0.500000
vt 0.625000 0.500000
vt 0.625000 0.626307
vt 0.375000 0.625000
vt 0.375000 0.383145
vt 0.625000 0.383145
vt 0.375000 0.750000
vt 0.561186 0.750000
vt 0.625000 0.766622
vt 0.625000 0.866855
vt 0.375000 0.866855
vt 0.125000 0.500000
vt 0.125000 0.630921
vt 0.741855 0.500000
vt 0.741855 0.624775
vt 0.812500 0.750000
vt 0.875000 0.750000
vt 0.616487 1.000000
vt 0.375000 1.000000
vt 0.125000 0.750000
vt 0.187500 0.750000
vt 0.641622 0.750000
vt 0.625000 0.733338
vt 0.756781 0.500000
vt 0.801922 0.500000
vt 0.812500 0.510517
vt 0.812500 0.632677
vt 0.756963 0.626264
vt 0.625000 0.941807
vt 0.625000 1.000000
vt 0.616487 0.000000
vt 0.625000 0.311772
vt 0.625000 0.312500
vt 0.625000 0.250000
vt 0.875000 0.511093
vt 0.875000 0.630921
vt 0.258145 0.625000
vt 0.258145 0.750000
vt 0.625000 0.625000
vt 0.625000 0.624565
vt 0.258145 0.500000
vt 0.316573 0.683427
vt 0.625000 0.627778
vt 0.308814 0.560778
vt 0.741855 0.625000
vt 0.741855 0.750000
vt 0.757142 0.750000
vt 0.625000 0.238907
vt 0.243405 0.750000
s 0
usemtl wood2
f 3/1/1 20/2/1 21/3/1 7/4/1
f 7/4/2 21/3/2 23/5/2 27/6/2 24/7/2
f 29/8/3 30/9/3 8/10/3 9/11/3
f 9/11/4 8/10/4 17/10/4 18/12/4 11/11/4
f 7/13/5 24/14/5 42/15/5 41/16/5
f 1/17/6 2/18/6 38/19/6 40/20/6
f 5/21/7 6/22/7 35/23/7 32/24/7
f 25/25/8 26/26/8 6/22/8 5/21/8
f 4/27/9 13/28/9 12/29/9 31/30/9 28/31/9
f 3/32/10 7/13/10 41/16/10 40/33/10
f 6/22/11 26/34/11 36/35/11 35/23/11
f 8/36/12 2/37/12 16/37/12 17/36/12
f 11/11/13 18/12/13 15/38/13 10/39/13
f 1/40/14 9/41/14 11/41/14 10/40/14
f 12/42/15 13/28/15 14/43/15
f 27/44/16 23/45/16 22/46/16 39/47/16 37/48/16
f 17/49/17 16/50/17 15/38/17 18/12/17
f 2/18/18 1/17/18 10/17/18 15/51/18 16/18/18
f 21/3/19 22/52/19 23/53/19
f 19/54/20 22/52/20 21/3/20 20/2/20
f 22/46/21 19/55/21 38/56/21 39/47/21
f 34/57/22 32/24/22 4/27/22 28/58/22
f 33/59/23 36/60/23 26/26/23 25/61/23 34/62/23
f 27/6/24 37/63/24 42/64/24 24/7/24
f 31/30/23 33/59/23 34/62/23 28/31/23
f 25/61/25 5/21/25 32/24/25 34/57/25
f 35/23/26 36/35/26 33/65/26 31/66/26 12/42/26 14/43/26
f 32/24/27 35/23/27 14/43/27 13/28/27 4/27/27
f 37/48/28 39/47/28 8/36/28 30/67/28
f 39/47/29 38/56/29 2/37/29 8/36/29
f 40/20/30 38/19/30 19/68/30 20/2/30 3/1/30
f 40/33/31 41/16/31 9/41/31 1/40/31
f 41/16/32 42/15/32 29/69/32 9/41/32
f 42/64/33 37/63/33 30/9/33 29/69/33
